<?xml version="1.0" encoding="UTF-8" standalone="no"?>
<!-- Created with Inkscape (http://www.inkscape.org/) -->

<svg
   width="91.3mm"
   height="128.5mm"
   viewBox="0 0 91.3 128.5"
   version="1.1"
   id="svg1"
   inkscape:version="1.3 (0e150ed, 2023-07-21)"
   sodipodi:docname="discomfort-lowstep-modification.svg"
   xmlns:inkscape="http://www.inkscape.org/namespaces/inkscape"
   xmlns:sodipodi="http://sodipodi.sourceforge.net/DTD/sodipodi-0.dtd"
   xmlns="http://www.w3.org/2000/svg"
   xmlns:svg="http://www.w3.org/2000/svg">
  <sodipodi:namedview
     id="namedview1"
     pagecolor="#505050"
     bordercolor="#ffffff"
     borderopacity="1"
     inkscape:showpageshadow="0"
     inkscape:pageopacity="0"
     inkscape:pagecheckerboard="1"
     inkscape:deskcolor="#505050"
     inkscape:document-units="mm"
     inkscape:zoom="2.1041948"
     inkscape:cx="257.10547"
     inkscape:cy="113.1074"
     inkscape:window-width="1752"
     inkscape:window-height="1027"
     inkscape:window-x="0"
     inkscape:window-y="25"
     inkscape:window-maximized="0"
     inkscape:current-layer="layer2"
     showguides="false"
     showgrid="false" />
  <defs
     id="defs1" />
  <g
     inkscape:label="Layer 1"
     inkscape:groupmode="layer"
     id="layer1">
    <rect
       style="fill:#000000;stroke-width:0.238166"
       id="rect1"
       width="91.300003"
       height="128.5"
       x="0"
       y="-2.7755576e-17"
       inkscape:label="Bounding Box"
       sodipodi:insensitive="true" />
    <g
       id="g1"
       inkscape:label="labels rasters"
       style="display:inline">
      <path
         d="M 8.165452,15.59187 H 7.2538797 V 15.356226 H 7.5561869 V 13.519129 H 7.2538797 V 13.283484 H 8.165452 v 0.235645 H 7.8631449 v 1.837097 H 8.165452 Z m 2.283581,0 H 10.069212 L 8.9747049,13.52688 v 2.06499 H 8.6879007 v -2.308386 h 0.4759399 l 0.9983884,1.885156 v -1.885156 h 0.286804 z m 3.190504,0 h -1.460376 v -2.308386 h 0.306958 v 2.035535 h 1.153418 z"
         id="text2"
         style="font-size:3.175px;fill:#ffffff;stroke-width:0.264583"
         aria-label="IN L" />
      <path
         d="M 19.398205,16.027414 H 18.486633 V 15.79177 h 0.302307 v -1.837097 h -0.302307 v -0.235645 h 0.911572 v 0.235645 h -0.302307 v 1.837097 h 0.302307 z m 2.283581,0 h -0.379822 l -1.094506,-2.06499 v 2.06499 h -0.286805 v -2.308386 h 0.47594 l 0.998389,1.885156 v -1.885156 h 0.286804 z m 3.640088,0 h -0.398425 l -0.772046,-0.917773 h -0.432532 v 0.917773 h -0.306958 v -2.308386 h 0.646473 q 0.209289,0 0.348815,0.02791 0.139527,0.02636 0.251148,0.09612 0.125574,0.07906 0.195337,0.199987 0.07131,0.119373 0.07131,0.303858 0,0.249597 -0.125573,0.418579 -0.125574,0.167432 -0.345716,0.252698 z m -0.717785,-1.658813 q 0,-0.09922 -0.03566,-0.175183 -0.03411,-0.07752 -0.114722,-0.130225 -0.06666,-0.04496 -0.15813,-0.06201 -0.09147,-0.0186 -0.21549,-0.0186 h -0.361219 v 0.871265 h 0.310059 q 0.145728,0 0.254248,-0.0248 0.108521,-0.02636 0.184485,-0.09612 0.06976,-0.06511 0.102319,-0.148828 0.03411,-0.08527 0.03411,-0.215491 z"
         id="text2-4"
         style="font-size:3.175px;fill:#ffffff;stroke-width:0.264583"
         aria-label="IN R" />
      <path
         d="m 67.112221,13.918622 q 0.141076,0.15503 0.21549,0.379822 0.07597,0.224792 0.07597,0.510046 0,0.285254 -0.07752,0.511597 -0.07596,0.224793 -0.21394,0.375171 -0.142627,0.15658 -0.337964,0.235644 -0.193787,0.07906 -0.443384,0.07906 -0.243396,0 -0.443384,-0.08061 -0.198437,-0.08061 -0.337964,-0.234094 -0.139526,-0.153479 -0.21549,-0.376721 -0.07441,-0.223242 -0.07441,-0.510047 0,-0.282153 0.07441,-0.505395 0.07441,-0.224793 0.217041,-0.384473 0.136426,-0.151928 0.337964,-0.232544 0.203088,-0.08061 0.441833,-0.08061 0.248047,0 0.444934,0.08217 0.198438,0.08061 0.336414,0.230993 z m -0.02791,0.889868 q 0,-0.449585 -0.201538,-0.692981 -0.201538,-0.244946 -0.550354,-0.244946 -0.351916,0 -0.553454,0.244946 -0.199988,0.243396 -0.199988,0.692981 0,0.454236 0.204639,0.696082 0.204638,0.240295 0.548803,0.240295 0.344165,0 0.547254,-0.240295 0.204638,-0.241846 0.204638,-0.696082 z m 2.544031,0.226343 q 0,0.251148 -0.05581,0.438733 -0.05426,0.186035 -0.179834,0.310059 -0.119373,0.117822 -0.279053,0.172082 -0.15968,0.05426 -0.37207,0.05426 -0.217041,0 -0.378272,-0.05736 -0.16123,-0.05736 -0.271301,-0.168982 -0.125574,-0.127124 -0.181384,-0.306958 -0.05426,-0.179834 -0.05426,-0.441834 v -1.381311 h 0.306958 v 1.396814 q 0,0.187586 0.02481,0.296106 0.02635,0.108521 0.08682,0.196887 0.06821,0.100769 0.184484,0.151929 0.117823,0.05116 0.282154,0.05116 0.165881,0 0.282153,-0.04961 0.116272,-0.05116 0.186035,-0.153479 0.06046,-0.08837 0.08527,-0.201538 0.02635,-0.114722 0.02635,-0.283703 v -1.404566 h 0.306958 z m 2.232422,-1.108459 h -0.824756 v 2.035534 h -0.306958 v -2.035534 h -0.824756 v -0.272852 h 1.95647 z m 2.886645,2.035534 h -1.460376 v -2.308386 h 0.306958 v 2.035535 h 1.153418 z"
         id="text2-1"
         style="font-size:3.175px;fill:#ffffff;stroke-width:0.264583"
         aria-label="OUT L" />
      <path
         d="m 80.231079,14.228425 q 0.141077,0.15503 0.215491,0.379822 0.07596,0.224792 0.07596,0.510046 0,0.285254 -0.07751,0.511597 -0.07596,0.224793 -0.21394,0.375171 -0.142627,0.15658 -0.337964,0.235644 -0.193786,0.07906 -0.443384,0.07906 -0.243396,0 -0.443383,-0.08061 -0.198438,-0.08062 -0.337964,-0.234094 -0.139527,-0.153479 -0.215491,-0.376721 -0.07441,-0.223242 -0.07441,-0.510047 0,-0.282153 0.07441,-0.505395 0.07441,-0.224793 0.217041,-0.384473 0.136426,-0.151928 0.337964,-0.232544 0.203088,-0.08061 0.441833,-0.08061 0.248047,0 0.444935,0.08217 0.198437,0.08061 0.336413,0.230993 z m -0.0279,0.889868 q 0,-0.449585 -0.201538,-0.692981 -0.201538,-0.244946 -0.550354,-0.244946 -0.351917,0 -0.553455,0.244946 -0.199988,0.243396 -0.199988,0.692981 0,0.454236 0.204639,0.696082 0.204639,0.240295 0.548804,0.240295 0.344165,0 0.547253,-0.240295 0.204639,-0.241846 0.204639,-0.696082 z m 2.544031,0.226343 q 0,0.251148 -0.05581,0.438733 -0.05426,0.186035 -0.179834,0.310059 -0.119372,0.117822 -0.279053,0.172082 -0.15968,0.05426 -0.37207,0.05426 -0.217041,0 -0.378271,-0.05736 -0.161231,-0.05736 -0.271302,-0.168982 -0.125573,-0.127124 -0.181384,-0.306958 -0.05426,-0.179834 -0.05426,-0.441834 v -1.381311 h 0.306958 v 1.396814 q 0,0.187586 0.0248,0.296106 0.02635,0.108521 0.08682,0.196887 0.06821,0.100769 0.184485,0.151929 0.117822,0.05116 0.282153,0.05116 0.165881,0 0.282153,-0.04961 0.116272,-0.05116 0.186036,-0.153479 0.06046,-0.08837 0.08527,-0.201538 0.02635,-0.114722 0.02635,-0.283703 v -1.404566 h 0.306958 z m 2.232421,-1.108459 H 84.15487 v 2.035534 h -0.306958 v -2.035534 h -0.824755 v -0.272852 h 1.956469 z m 3.336231,2.035534 h -0.398426 l -0.772046,-0.917773 h -0.432531 v 0.917773 h -0.306958 v -2.308386 h 0.646472 q 0.209289,0 0.348816,0.02791 0.139526,0.02636 0.251147,0.09612 0.125574,0.07906 0.195337,0.199987 0.07131,0.119373 0.07131,0.303858 0,0.249597 -0.125574,0.418579 -0.125574,0.167432 -0.345715,0.252698 z m -0.717786,-1.658813 q 0,-0.09922 -0.03566,-0.175183 -0.03411,-0.07752 -0.114721,-0.130225 -0.06666,-0.04496 -0.15813,-0.06201 -0.09147,-0.0186 -0.215491,-0.0186 h -0.361218 v 0.871265 h 0.310058 q 0.145728,0 0.254248,-0.02481 0.108521,-0.02636 0.184485,-0.09612 0.06976,-0.06511 0.10232,-0.148828 0.03411,-0.08527 0.03411,-0.215491 z"
         id="text2-4-1"
         style="font-size:3.175px;fill:#ffffff;stroke-width:0.264583"
         aria-label="OUT R" />
      <g
         id="text3"
         style="font-size:3.175px;fill:#ffffff;stroke-width:0.264583"
         aria-label="FOLD&#10;MIX">
        <path
           d="m 31.459238,29.399692 h -1.167371 v 0.651123 h 1.00304 v 0.272851 h -1.00304 v 1.11156 H 29.984909 V 29.12684 h 1.474329 z m 2.071191,-0.0078 q 0.141077,0.15503 0.215491,0.379822 0.07596,0.224793 0.07596,0.510046 0,0.285254 -0.07751,0.511597 -0.07596,0.224793 -0.21394,0.375171 -0.142627,0.15658 -0.337964,0.235645 -0.193787,0.07906 -0.443384,0.07906 -0.243396,0 -0.443383,-0.08062 -0.198438,-0.08062 -0.337964,-0.234094 -0.139527,-0.153479 -0.215491,-0.376721 -0.07441,-0.223242 -0.07441,-0.510047 0,-0.282153 0.07441,-0.505395 0.07441,-0.224792 0.217041,-0.384473 0.136426,-0.151928 0.337964,-0.232544 0.203088,-0.08062 0.441833,-0.08062 0.248047,0 0.444934,0.08217 0.198438,0.08061 0.336414,0.230993 z m -0.0279,0.889868 q 0,-0.449584 -0.201538,-0.69298 -0.201538,-0.244947 -0.550354,-0.244947 -0.351917,0 -0.553455,0.244947 -0.199988,0.243396 -0.199988,0.69298 0,0.454236 0.204639,0.696082 0.204639,0.240295 0.548804,0.240295 0.344165,0 0.547253,-0.240295 0.204639,-0.241846 0.204639,-0.696082 z m 2.266528,1.153418 H 34.308676 V 29.12684 h 0.306958 v 2.035535 h 1.153418 z m 2.257227,-1.151867 q 0,0.314709 -0.137976,0.570508 -0.136426,0.255798 -0.364319,0.396875 -0.15813,0.09767 -0.353467,0.141076 -0.193787,0.04341 -0.511597,0.04341 H 36.07601 V 29.12684 h 0.576709 q 0.337964,0 0.536402,0.04961 0.199987,0.04806 0.337963,0.133325 0.235645,0.147278 0.36742,0.392224 0.131775,0.244946 0.131775,0.58136 z m -0.320911,-0.0047 q 0,-0.271301 -0.09457,-0.457337 -0.09457,-0.186035 -0.282153,-0.293005 -0.136426,-0.07751 -0.289905,-0.10697 -0.153479,-0.03101 -0.367419,-0.03101 h -0.288355 v 1.781287 h 0.288355 q 0.221692,0 0.386023,-0.03256 0.165881,-0.03256 0.303857,-0.120922 0.172083,-0.110071 0.257349,-0.289905 0.08682,-0.179834 0.08682,-0.449585 z"
           id="path40" />
        <path
           d="m 32.040597,35.403976 h -0.306958 v -1.989025 l -0.641821,1.353405 h -0.182934 l -0.637171,-1.353405 v 1.989025 H 29.984909 V 33.09559 h 0.418579 l 0.615466,1.285193 0.595313,-1.285193 h 0.42633 z m 1.434021,0 h -0.911572 v -0.235644 h 0.302307 V 33.331235 H 32.563046 V 33.09559 h 0.911572 v 0.235645 h -0.302307 v 1.837097 h 0.302307 z m 2.283582,-2.308386 -0.796851,1.141016 0.7953,1.16737 h -0.355017 l -0.629419,-0.950329 -0.644921,0.950329 H 33.792428 L 34.59703,34.250558 33.811032,33.09559 h 0.353467 l 0.621667,0.937927 0.63562,-0.937927 z"
           id="path41" />
      </g>
      <g
         id="text3-7"
         style="font-size:3.175px;fill:#ffffff;stroke-width:0.264583"
         aria-label="DIST&#10;MIX">
        <path
           d="m 45.758294,30.096565 q 0,0.314709 -0.137976,0.570507 -0.136426,0.255799 -0.364319,0.396875 -0.15813,0.09767 -0.353467,0.141077 -0.193786,0.04341 -0.511596,0.04341 h -0.582911 v -2.308386 h 0.576709 q 0.337964,0 0.536402,0.04961 0.199987,0.04806 0.337964,0.133326 0.235644,0.147277 0.367419,0.392224 0.131775,0.244946 0.131775,0.58136 z m -0.320911,-0.0047 q 0,-0.271302 -0.09457,-0.457337 -0.09457,-0.186035 -0.282153,-0.293005 -0.136426,-0.07751 -0.289905,-0.10697 -0.153479,-0.03101 -0.367419,-0.03101 h -0.288355 v 1.781286 h 0.288355 q 0.221692,0 0.386023,-0.03256 0.165881,-0.03256 0.303857,-0.120923 0.172083,-0.11007 0.257349,-0.289904 0.08682,-0.179834 0.08682,-0.449585 z m 1.630908,1.156518 h -0.911572 v -0.235644 h 0.302307 V 29.17569 h -0.302307 v -0.235644 h 0.911572 v 0.235644 h -0.302307 v 1.837098 h 0.302307 z m 2.199866,-0.658874 q 0,0.134875 -0.06356,0.26665 -0.06201,0.131775 -0.175183,0.223242 -0.124023,0.09922 -0.289905,0.15503 -0.164331,0.05581 -0.396875,0.05581 -0.249597,0 -0.449585,-0.04651 -0.198437,-0.04651 -0.404626,-0.137976 v -0.384472 h 0.0217 q 0.175183,0.145727 0.404626,0.224792 0.229444,0.07906 0.430982,0.07906 0.285254,0 0.443384,-0.10697 0.15968,-0.10697 0.15968,-0.285254 0,-0.153479 -0.07596,-0.226343 -0.07441,-0.07286 -0.227893,-0.113171 -0.116272,-0.03101 -0.252697,-0.05116 -0.134876,-0.02015 -0.286805,-0.05116 -0.306958,-0.06511 -0.455786,-0.221692 -0.147277,-0.158129 -0.147277,-0.410827 0,-0.289905 0.244946,-0.47439 0.244946,-0.186035 0.621667,-0.186035 0.243396,0 0.446485,0.04651 0.203088,0.04651 0.359668,0.114722 v 0.362768 h -0.0217 q -0.131774,-0.111621 -0.347265,-0.184485 -0.213941,-0.07441 -0.438733,-0.07441 -0.246497,0 -0.396875,0.102319 -0.148828,0.10232 -0.148828,0.26355 0,0.144178 0.07441,0.226343 0.07441,0.08217 0.261999,0.125574 0.09922,0.0217 0.282154,0.05271 0.182934,0.03101 0.310058,0.06356 0.257349,0.06821 0.387574,0.206189 0.130224,0.137976 0.130224,0.386023 z m 2.139404,-1.37666 h -0.824755 v 2.035534 h -0.306958 v -2.035534 h -0.824756 v -0.272852 h 1.956469 z"
           id="path42" />
        <path
           d="m 45.863714,35.217182 h -0.306958 v -1.989026 l -0.641821,1.353406 H 44.732 l -0.63717,-1.353406 v 1.989026 h -0.286805 v -2.308386 h 0.418579 l 0.615467,1.285193 0.595312,-1.285193 h 0.426331 z m 1.434021,0 H 46.386162 V 34.981538 H 46.68847 V 33.14444 h -0.302308 v -0.235644 h 0.911573 v 0.235644 h -0.302307 v 1.837098 h 0.302307 z m 2.283581,-2.308386 -0.796851,1.141016 0.795301,1.16737 h -0.355017 l -0.629419,-0.950329 -0.644922,0.950329 h -0.334863 l 0.804602,-1.153418 -0.785999,-1.154968 h 0.353467 l 0.621667,0.937927 0.63562,-0.937927 z"
           id="path43" />
      </g>
      <path
         d="m 56.402441,15.717611 h -1.520838 v -2.308386 h 1.520838 v 0.272852 h -1.21388 v 0.632519 h 1.21388 v 0.272852 h -1.21388 v 0.857312 h 1.21388 z m 2.247924,0 h -0.379821 l -1.094507,-2.06499 v 2.06499 h -0.286804 v -2.308386 h 0.47594 l 0.998388,1.885156 v -1.885156 h 0.286804 z m 2.43396,-2.308386 -0.840259,2.308386 H 59.834789 L 58.99453,13.409225 h 0.328662 l 0.723987,2.030884 0.723987,-2.030884 z"
         id="text4"
         style="font-size:3.175px;fill:#ffffff;stroke-width:0.264583"
         aria-label="ENV" />
      <path
         d="M 5.8705444,33.698559 H 4.9589722 V 33.462914 H 5.2612793 V 31.625817 H 4.9589722 v -0.235644 h 0.9115722 v 0.235644 H 5.5682373 v 1.837097 h 0.3023071 z m 2.2835815,0 H 7.7743041 l -1.0945068,-2.06499 v 2.06499 H 6.3929931 V 31.390173 H 6.868933 l 0.9983887,1.885156 v -1.885156 h 0.2868042 z m 3.6555911,-0.170532 q -0.189136,0.08682 -0.413928,0.151928 -0.223243,0.06356 -0.432532,0.06356 -0.269751,0 -0.494544,-0.07441 -0.224792,-0.07441 -0.382922,-0.223242 -0.1596801,-0.150378 -0.2464965,-0.375171 -0.086816,-0.226343 -0.086816,-0.52865 0,-0.553454 0.3224609,-0.872815 0.324011,-0.32091 0.888318,-0.32091 0.196887,0 0.401526,0.04806 0.206189,0.04651 0.443384,0.15968 v 0.364319 h -0.02791 q -0.04806,-0.03721 -0.139526,-0.09767 -0.09147,-0.06046 -0.179834,-0.100769 -0.10697,-0.04806 -0.243396,-0.07906 -0.134876,-0.03256 -0.306958,-0.03256 -0.387573,0 -0.613916,0.249597 -0.224793,0.248047 -0.224793,0.672828 0,0.448034 0.235645,0.697631 0.235645,0.248047 0.641821,0.248047 0.148828,0 0.296106,-0.02945 0.148828,-0.02946 0.260449,-0.07597 V 32.80714 h -0.618566 v -0.269751 h 0.922424 z m 2.356445,0.170532 H 13.83905 l -0.226343,-0.643372 h -0.998388 l -0.226343,0.643372 h -0.311609 l 0.840259,-2.308386 h 0.409277 z m -0.648023,-0.906922 -0.404626,-1.133264 -0.406177,1.133264 z m 1.812293,0.906922 H 14.41886 v -0.235645 h 0.302307 V 31.625817 H 14.41886 v -0.235644 h 0.911572 v 0.235644 h -0.302307 v 1.837097 h 0.302307 z m 2.283581,0 h -0.379822 l -1.094506,-2.06499 v 2.06499 H 15.85288 v -2.308386 h 0.47594 l 0.998389,1.885156 v -1.885156 h 0.286804 z"
         id="text5"
         style="font-size:3.175px;fill:#ffffff;stroke-width:0.264583"
         aria-label="IN GAIN" />
      <path
         d="m 73.381058,32.62543 q 0.141076,0.15503 0.21549,0.379822 0.07596,0.224793 0.07596,0.510046 0,0.285254 -0.07751,0.511597 -0.07596,0.224793 -0.21394,0.375171 -0.142627,0.15658 -0.337964,0.235645 -0.193787,0.07906 -0.443384,0.07906 -0.243396,0 -0.443384,-0.08062 -0.198437,-0.08061 -0.337964,-0.234094 -0.139526,-0.153479 -0.21549,-0.376721 -0.07441,-0.223242 -0.07441,-0.510047 0,-0.282153 0.07441,-0.505395 0.07441,-0.224792 0.217041,-0.384473 0.136425,-0.151928 0.337964,-0.232544 0.203088,-0.08061 0.441833,-0.08061 0.248047,0 0.444934,0.08217 0.198438,0.08061 0.336414,0.230993 z m -0.02791,0.889868 q 0,-0.449584 -0.201538,-0.69298 -0.201538,-0.244947 -0.550354,-0.244947 -0.351916,0 -0.553454,0.244947 -0.199988,0.243396 -0.199988,0.69298 0,0.454236 0.204639,0.696082 0.204638,0.240295 0.548803,0.240295 0.344165,0 0.547254,-0.240295 0.204638,-0.241846 0.204638,-0.696082 z m 2.544031,0.226343 q 0,0.251148 -0.05581,0.438733 -0.05426,0.186035 -0.179834,0.310059 -0.119373,0.117822 -0.279053,0.172082 -0.15968,0.05426 -0.37207,0.05426 -0.217041,0 -0.378272,-0.05736 -0.16123,-0.05736 -0.271301,-0.168982 -0.125574,-0.127124 -0.181384,-0.306958 -0.05426,-0.179834 -0.05426,-0.441834 V 32.36033 h 0.306958 v 1.396814 q 0,0.187586 0.02481,0.296106 0.02635,0.108521 0.08682,0.196887 0.06821,0.100769 0.184484,0.151929 0.117823,0.05116 0.282154,0.05116 0.165881,0 0.282153,-0.04961 0.116272,-0.05116 0.186035,-0.153479 0.06046,-0.08837 0.08527,-0.201538 0.02636,-0.114721 0.02636,-0.283703 V 32.36033 h 0.306958 z m 2.232422,-1.108459 h -0.824756 v 2.035534 H 76.997891 V 32.633182 H 76.173135 V 32.36033 h 1.95647 z m 3.351733,1.865002 q -0.189136,0.08682 -0.413928,0.151929 -0.223242,0.06356 -0.432532,0.06356 -0.269751,0 -0.494543,-0.07441 -0.224793,-0.07441 -0.382923,-0.223242 -0.15968,-0.150379 -0.246496,-0.375171 -0.08682,-0.226343 -0.08682,-0.52865 0,-0.553455 0.322461,-0.872815 0.324012,-0.320911 0.888318,-0.320911 0.196887,0 0.401526,0.04806 0.206189,0.04651 0.443384,0.159681 v 0.364318 h -0.02791 q -0.04806,-0.03721 -0.139527,-0.09767 -0.09147,-0.06046 -0.179834,-0.100769 -0.10697,-0.04806 -0.243396,-0.07906 -0.134875,-0.03256 -0.306958,-0.03256 -0.387573,0 -0.613916,0.249597 -0.224792,0.248047 -0.224792,0.672827 0,0.448035 0.235644,0.697632 0.235645,0.248047 0.641822,0.248047 0.148828,0 0.296106,-0.02946 0.148828,-0.02945 0.260449,-0.07596 v -0.565857 h -0.618567 v -0.269751 h 0.922424 z m 2.356445,0.170532 H 83.510671 L 83.284329,34.025345 H 82.28594 l -0.226343,0.643371 h -0.311609 l 0.840259,-2.308386 h 0.409277 z m -0.648022,-0.906921 -0.404627,-1.133264 -0.406176,1.133264 z m 1.812292,0.906921 h -0.911572 v -0.235644 h 0.302307 V 32.595975 H 84.090481 V 32.36033 h 0.911572 v 0.235645 h -0.302307 v 1.837097 h 0.302307 z m 2.283582,0 h -0.379822 l -1.094507,-2.06499 v 2.06499 H 85.524502 V 32.36033 h 0.47594 l 0.998388,1.885156 V 32.36033 h 0.286805 z"
         id="text5-8"
         style="font-size:3.175px;fill:#ffffff;stroke-width:0.264583"
         aria-label="OUT GAIN" />
      <path
         d="m 24.732075,5.4304235 q 0,0.3147094 -0.137976,0.5705078 -0.136425,0.2557983 -0.364318,0.396875 -0.15813,0.097668 -0.353467,0.1410766 -0.193787,0.043408 -0.511597,0.043408 h -0.58291 V 4.2739049 h 0.576709 q 0.337964,0 0.536401,0.049609 0.199988,0.048059 0.337964,0.1333252 0.235645,0.1472778 0.36742,0.3922241 0.131774,0.2449463 0.131774,0.5813599 z m -0.32091,-0.00465 q 0,-0.2713013 -0.09457,-0.4573364 Q 24.222029,4.782401 24.034444,4.6754308 23.898018,4.5979162 23.744539,4.5684606 23.59106,4.5374547 23.377119,4.5374547 h -0.288354 v 1.7812866 h 0.288354 q 0.221692,0 0.386023,-0.032556 0.165882,-0.032556 0.303858,-0.1209229 0.172082,-0.1100708 0.257348,-0.2899048 0.08682,-0.1798339 0.08682,-0.4495849 z m 1.630908,1.1565185 H 25.130501 V 6.3466466 h 0.302307 V 4.5095495 H 25.130501 V 4.2739049 h 0.911572 v 0.2356446 h -0.302307 v 1.8370971 h 0.302307 z m 2.199866,-0.6588745 q 0,0.1348755 -0.06356,0.2666504 -0.06201,0.1317749 -0.175183,0.2232422 -0.124024,0.099219 -0.289905,0.1550293 -0.164331,0.05581 -0.396875,0.05581 -0.249597,0 -0.449585,-0.046509 -0.198438,-0.046509 -0.404627,-0.137976 V 6.0551915 h 0.0217 q 0.175183,0.1457276 0.404626,0.2247925 0.229443,0.079065 0.430981,0.079065 0.285254,0 0.443384,-0.1069702 0.15968,-0.1069702 0.15968,-0.2852539 0,-0.153479 -0.07596,-0.2263427 Q 27.7722,5.6676183 27.618721,5.6273107 27.502449,5.5963048 27.366023,5.576151 27.231148,5.5559972 27.079219,5.5249913 26.772261,5.459879 26.623433,5.3032994 26.476155,5.1451696 26.476155,4.8924718 q 0,-0.2899048 0.244946,-0.4743896 0.244947,-0.1860352 0.621668,-0.1860352 0.243396,0 0.446484,0.046509 0.203089,0.046509 0.359668,0.1147217 V 4.756046 h -0.0217 q -0.131775,-0.1116211 -0.347266,-0.1844848 -0.21394,-0.074414 -0.438732,-0.074414 -0.246497,0 -0.396875,0.1023193 -0.148829,0.1023194 -0.148829,0.2635498 0,0.1441773 0.07441,0.2263428 0.07442,0.082166 0.262,0.1255737 0.09922,0.021704 0.282153,0.05271 0.182935,0.031006 0.310059,0.063562 0.257349,0.068213 0.387573,0.206189 0.130225,0.1379761 0.130225,0.3860229 z m 2.27583,0.4914429 q -0.08527,0.037207 -0.155029,0.069763 -0.06821,0.032556 -0.179834,0.068213 -0.09457,0.029456 -0.206189,0.049609 -0.110071,0.021704 -0.243396,0.021704 -0.251148,0 -0.457337,-0.069763 -0.204638,-0.071313 -0.356567,-0.2216919 -0.148828,-0.1472779 -0.232544,-0.3736206 -0.08372,-0.2278931 -0.08372,-0.5286499 0,-0.2852539 0.08062,-0.5100464 0.08062,-0.2247925 0.232544,-0.3798218 0.147278,-0.1503784 0.355017,-0.2294433 0.20929,-0.079065 0.463538,-0.079065 0.186035,0 0.37052,0.044958 0.186035,0.044959 0.412378,0.1581299 v 0.3643188 h -0.02326 q -0.190686,-0.1596801 -0.378271,-0.2325439 -0.187585,-0.072864 -0.401526,-0.072864 -0.175183,0 -0.31626,0.057361 -0.139526,0.05581 -0.249597,0.1751831 -0.10697,0.1162719 -0.167431,0.2945556 -0.05891,0.1767334 -0.05891,0.4092774 0,0.243396 0.06511,0.4185791 0.06666,0.1751831 0.170532,0.2852539 0.10852,0.1147216 0.252698,0.1705322 0.145727,0.05426 0.306958,0.05426 0.221692,0 0.415478,-0.075964 0.193787,-0.075964 0.362769,-0.2278931 h 0.0217 z M 32.672676,4.539005 q 0.141077,0.1550293 0.215491,0.3798218 0.07596,0.2247925 0.07596,0.5100464 0,0.2852539 -0.07752,0.5115966 -0.07596,0.2247925 -0.21394,0.3751709 -0.142627,0.1565796 -0.337964,0.2356446 -0.193786,0.079065 -0.443384,0.079065 -0.243396,0 -0.443383,-0.080615 -0.198438,-0.080615 -0.337964,-0.2340943 -0.139527,-0.153479 -0.215491,-0.3767211 -0.07441,-0.2232422 -0.07441,-0.5100464 0,-0.2821533 0.07441,-0.5053955 0.07441,-0.2247925 0.217041,-0.3844727 0.136426,-0.1519287 0.337964,-0.2325439 0.203088,-0.080615 0.441833,-0.080615 0.248047,0 0.444934,0.082166 0.198438,0.080615 0.336414,0.2309936 z m -0.02791,0.8898682 q 0,-0.449585 -0.201538,-0.692981 -0.201538,-0.2449463 -0.550354,-0.2449463 -0.351917,0 -0.553455,0.2449463 -0.199988,0.243396 -0.199988,0.692981 0,0.4542358 0.204639,0.6960815 0.204639,0.2402954 0.548804,0.2402954 0.344165,0 0.547253,-0.2402954 0.204639,-0.2418457 0.204639,-0.6960815 z m 2.86184,1.1534179 H 35.199653 V 4.5932653 L 34.557832,5.946671 H 34.374898 L 33.737727,4.5932653 V 6.5822911 H 33.450923 V 4.2739049 h 0.418579 l 0.615466,1.2851929 0.595313,-1.2851929 h 0.42633 z m 2.094447,-2.0355346 h -1.167371 v 0.651123 h 1.00304 v 0.2728516 h -1.00304 v 1.11156 H 36.126729 V 4.2739049 h 1.474329 z m 2.071191,-0.00775 q 0.141076,0.1550293 0.215491,0.3798218 0.07596,0.2247925 0.07596,0.5100464 0,0.2852539 -0.07751,0.5115966 -0.07596,0.2247925 -0.21394,0.3751709 -0.142627,0.1565796 -0.337964,0.2356446 -0.193787,0.079065 -0.443384,0.079065 -0.243396,0 -0.443384,-0.080615 -0.198437,-0.080615 -0.337963,-0.2340943 -0.139527,-0.153479 -0.215491,-0.3767211 -0.07441,-0.2232422 -0.07441,-0.5100464 0,-0.2821533 0.07441,-0.5053955 0.07441,-0.2247925 0.217041,-0.3844727 0.136426,-0.1519287 0.337964,-0.2325439 0.203088,-0.080615 0.441833,-0.080615 0.248047,0 0.444934,0.082166 0.198438,0.080615 0.336414,0.2309936 z m -0.02791,0.8898682 q 0,-0.449585 -0.201539,-0.692981 -0.201538,-0.2449463 -0.550354,-0.2449463 -0.351916,0 -0.553454,0.2449463 -0.199988,0.243396 -0.199988,0.692981 0,0.4542358 0.204639,0.6960815 0.204638,0.2402954 0.548803,0.2402954 0.344165,0 0.547254,-0.2402954 0.204639,-0.2418457 0.204639,-0.6960815 z m 2.716114,1.1534179 H 41.962032 L 41.189986,5.6645177 H 40.757455 V 6.5822911 H 40.450497 V 4.2739049 h 0.646472 q 0.209289,0 0.348816,0.027905 0.139526,0.026355 0.251147,0.096118 0.125574,0.079065 0.195337,0.1999878 0.07131,0.1193725 0.07131,0.3038574 0,0.2495971 -0.125574,0.4185791 -0.125574,0.1674316 -0.345715,0.2526977 z M 41.642672,4.9234777 q 0,-0.099219 -0.03566,-0.1751831 -0.03411,-0.077515 -0.114721,-0.1302246 -0.06666,-0.044958 -0.15813,-0.062012 -0.09147,-0.018604 -0.215491,-0.018604 h -0.361218 v 0.8712647 h 0.310058 q 0.145728,0 0.254248,-0.024805 0.108521,-0.026355 0.184485,-0.096118 0.06976,-0.065112 0.102319,-0.1488281 0.03411,-0.085266 0.03411,-0.2154907 z M 44.211507,4.5467565 H 43.386751 V 6.5822911 H 43.079793 V 4.5467565 H 42.255037 V 4.2739049 h 1.95647 z M 47.457819,4.2739049 46.617561,6.5822911 H 46.208283 L 45.368024,4.2739049 h 0.328663 l 0.723986,2.0308838 0.723987,-2.0308838 z m 2.133203,2.1409546 q -0.08527,0.037207 -0.155029,0.069763 -0.06821,0.032556 -0.179834,0.068213 -0.09457,0.029456 -0.206189,0.049609 -0.110071,0.021704 -0.243396,0.021704 -0.251147,0 -0.457336,-0.069763 Q 48.144599,6.4830724 47.99267,6.332694 47.843842,6.1854161 47.760126,5.9590734 q -0.08371,-0.2278931 -0.08371,-0.5286499 0,-0.2852539 0.08062,-0.5100464 0.08061,-0.2247925 0.232544,-0.3798218 0.147278,-0.1503784 0.355017,-0.2294433 0.209289,-0.079065 0.463538,-0.079065 0.186035,0 0.37052,0.044958 0.186035,0.044959 0.412377,0.1581299 v 0.3643188 h -0.02325 q -0.190686,-0.1596801 -0.378271,-0.2325439 -0.187586,-0.072864 -0.401526,-0.072864 -0.175183,0 -0.31626,0.057361 -0.139526,0.05581 -0.249597,0.1751831 -0.10697,0.1162719 -0.167432,0.2945556 -0.05891,0.1767334 -0.05891,0.4092774 0,0.243396 0.06511,0.4185791 0.06666,0.1751831 0.170533,0.2852539 0.10852,0.1147216 0.252697,0.1705322 0.145728,0.05426 0.306958,0.05426 0.221692,0 0.415479,-0.075964 0.193786,-0.075964 0.362768,-0.2278931 h 0.0217 z M 51.845148,4.2739049 51.00489,6.5822911 H 50.595612 L 49.755354,4.2739049 h 0.328662 l 0.723986,2.0308838 0.723987,-2.0308838 z m 2.987415,2.3083862 H 53.311726 V 4.2739049 h 1.520837 V 4.5467565 H 53.618684 V 5.179276 h 1.213879 v 0.2728516 h -1.213879 v 0.857312 h 1.213879 z m 2.247925,-2.3083862 -0.796851,1.1410156 0.7953,1.1673706 H 56.72392 L 56.094501,5.6319616 55.44958,6.5822911 H 55.114716 L 55.919318,5.4288732 55.13332,4.2739049 h 0.353467 l 0.621667,0.9379273 0.63562,-0.9379273 z m 1.923913,0.6976319 q 0,0.153479 -0.05426,0.2852539 -0.05271,0.1302246 -0.148828,0.2263427 -0.119372,0.1193726 -0.282153,0.179834 -0.162781,0.058911 -0.410828,0.058911 H 57.801373 V 6.5822911 H 57.494415 V 4.2739049 h 0.626319 q 0.207739,0 0.351916,0.035657 0.144177,0.034106 0.255798,0.1085205 0.131775,0.088367 0.203089,0.2201416 0.07286,0.1317749 0.07286,0.333313 z m -0.319361,0.00775 q 0,-0.1193725 -0.04186,-0.2077392 -0.04186,-0.088367 -0.127124,-0.1441773 -0.07441,-0.048059 -0.170532,-0.068213 -0.09457,-0.021704 -0.240295,-0.021704 H 57.801373 V 5.459879 h 0.258899 q 0.186035,0 0.302307,-0.032556 0.116272,-0.034107 0.189136,-0.1069702 0.07286,-0.074414 0.102319,-0.1565796 0.03101,-0.082166 0.03101,-0.1844849 z m 2.244824,1.6030029 H 59.409027 V 4.2739049 h 1.520837 V 4.5467565 H 59.715985 V 5.179276 h 1.213879 v 0.2728516 h -1.213879 v 0.857312 h 1.213879 z m 2.396753,0 H 62.928192 L 62.156146,5.6645177 H 61.723614 V 6.5822911 H 61.416656 V 4.2739049 h 0.646473 q 0.209289,0 0.348816,0.027905 0.139526,0.026355 0.251147,0.096118 0.125574,0.079065 0.195337,0.1999878 0.07131,0.1193725 0.07131,0.3038574 0,0.2495971 -0.125573,0.4185791 -0.125574,0.1674316 -0.345716,0.2526977 z M 62.608832,4.9234777 q 0,-0.099219 -0.03566,-0.1751831 -0.03411,-0.077515 -0.114722,-0.1302246 -0.06666,-0.044958 -0.15813,-0.062012 -0.09147,-0.018604 -0.21549,-0.018604 h -0.361219 v 0.8712647 h 0.310059 q 0.145728,0 0.254248,-0.024805 0.108521,-0.026355 0.184485,-0.096118 0.06976,-0.065112 0.102319,-0.1488281 0.03411,-0.085266 0.03411,-0.2154907 z m 1.829347,1.6588134 H 63.526607 V 6.3466466 h 0.302307 V 4.5095495 H 63.526607 V 4.2739049 h 0.911572 v 0.2356446 h -0.302307 v 1.8370971 h 0.302307 z m 2.578138,0 H 66.709359 V 4.5932653 L 66.067538,5.946671 H 65.884603 L 65.247433,4.5932653 V 6.5822911 H 64.960629 V 4.2739049 h 0.418579 l 0.615466,1.2851929 0.595312,-1.2851929 h 0.426331 z m 2.140953,0 H 67.636433 V 4.2739049 H 69.15727 V 4.5467565 H 67.943391 V 5.179276 h 1.213879 v 0.2728516 h -1.213879 v 0.857312 h 1.213879 z m 2.247925,0 H 71.025373 L 69.930866,4.5173009 V 6.5822911 H 69.644062 V 4.2739049 h 0.47594 l 0.998389,1.8851563 V 4.2739049 h 0.286804 z M 73.665523,4.5467565 H 72.840767 V 6.5822911 H 72.533809 V 4.5467565 H 71.709053 V 4.2739049 h 1.95647 z"
         id="text5-8-4"
         style="font-size:3.175px;fill:#ffffff;stroke-width:0.264583"
         aria-label="DISCOMFORT VCV EXPERIMENT" />
      <path
         d="M 5.76296,50.478175 H 4.5955894 v 0.651123 H 5.598629 V 51.40215 H 4.5955894 v 1.11156 H 4.2886314 V 50.205324 H 5.76296 Z m 2.0711914,-0.0078 q 0.1410766,0.155029 0.2154907,0.379822 0.075964,0.224792 0.075964,0.510046 0,0.285254 -0.077515,0.511597 -0.075964,0.224792 -0.2139404,0.375171 -0.142627,0.156579 -0.3379639,0.235644 -0.1937866,0.07906 -0.4433838,0.07906 -0.243396,0 -0.4433838,-0.08062 -0.1984375,-0.08061 -0.3379638,-0.234094 -0.1395264,-0.153479 -0.2154908,-0.376722 -0.074414,-0.223242 -0.074414,-0.510046 0,-0.282153 0.074414,-0.505395 0.074414,-0.224793 0.2170411,-0.384473 0.1364257,-0.151929 0.3379638,-0.232544 0.2030884,-0.08061 0.4418335,-0.08061 0.2480469,0 0.4449341,0.08216 0.1984375,0.08062 0.3364136,0.230994 z m -0.027905,0.889868 q 0,-0.449585 -0.2015381,-0.692981 -0.2015381,-0.244946 -0.550354,-0.244946 -0.3519165,0 -0.5534546,0.244946 -0.1999878,0.243396 -0.1999878,0.692981 0,0.454236 0.2046387,0.696082 0.2046387,0.240295 0.5488037,0.240295 0.344165,0 0.5472534,-0.240295 0.2046387,-0.241846 0.2046387,-0.696082 z M 10.072775,52.51371 H 8.6123986 v -2.308386 h 0.306958 v 2.035534 h 1.1534184 z m 2.257226,-1.151868 q 0,0.31471 -0.137976,0.570508 -0.136426,0.255799 -0.364319,0.396875 -0.15813,0.09767 -0.353467,0.141077 -0.193786,0.04341 -0.511596,0.04341 h -0.58291 v -2.308386 h 0.576709 q 0.337963,0 0.536401,0.04961 0.199988,0.04806 0.337964,0.133325 0.235644,0.147278 0.367419,0.392225 0.131775,0.244946 0.131775,0.581359 z m -0.320911,-0.0047 q 0,-0.271301 -0.09457,-0.457336 -0.09457,-0.186035 -0.282154,-0.293005 -0.136425,-0.07751 -0.289904,-0.106971 -0.153479,-0.03101 -0.36742,-0.03101 h -0.288354 v 1.781286 h 0.288354 q 0.221692,0 0.386023,-0.03256 0.165881,-0.03256 0.303857,-0.120923 0.172083,-0.110071 0.257349,-0.289905 0.08682,-0.179834 0.08682,-0.449585 z m 3.753259,1.156519 h -0.327111 l -0.226343,-0.643372 h -0.998389 l -0.226343,0.643372 h -0.311608 l 0.840258,-2.308386 h 0.409278 z m -0.648022,-0.906921 -0.404626,-1.133264 -0.406177,1.133264 z m 2.660303,0.248047 q 0,0.134875 -0.06356,0.26665 -0.06201,0.131775 -0.175183,0.223242 -0.124024,0.09922 -0.289905,0.155029 -0.164331,0.05581 -0.396875,0.05581 -0.249597,0 -0.449585,-0.04651 -0.198438,-0.04651 -0.404627,-0.137976 V 51.98661 h 0.0217 q 0.175183,0.145728 0.404626,0.224793 0.229443,0.07906 0.430981,0.07906 0.285254,0 0.443384,-0.10697 0.15968,-0.106971 0.15968,-0.285254 0,-0.153479 -0.07596,-0.226343 -0.07441,-0.07286 -0.227893,-0.113171 -0.116272,-0.03101 -0.252698,-0.05116 -0.134875,-0.02015 -0.286804,-0.05116 -0.306958,-0.06511 -0.455786,-0.221692 -0.147278,-0.15813 -0.147278,-0.410827 0,-0.289905 0.244946,-0.47439 0.244947,-0.186035 0.621668,-0.186035 0.243396,0 0.446484,0.04651 0.203089,0.04651 0.359668,0.114721 v 0.362769 h -0.0217 q -0.131775,-0.111621 -0.347266,-0.184485 -0.21394,-0.07441 -0.438732,-0.07441 -0.246497,0 -0.396875,0.102319 -0.148829,0.10232 -0.148829,0.26355 0,0.144177 0.07441,0.226343 0.07442,0.08217 0.262,0.125574 0.09922,0.0217 0.282153,0.05271 0.182935,0.03101 0.310059,0.06356 0.257349,0.06821 0.387573,0.206189 0.130225,0.137976 0.130225,0.386023 z m 2.127002,-1.649512 -0.812354,1.296045 V 52.51371 H 18.78232 v -0.979785 l -0.815454,-1.328601 h 0.339514 l 0.630969,1.032495 0.637171,-1.032495 z m 2.375049,2.308386 h -0.306958 v -1.989026 l -0.641822,1.353406 h -0.182934 l -0.637171,-1.353406 v 1.989026 h -0.286804 v -2.308386 h 0.418579 l 0.615466,1.285193 0.595313,-1.285193 h 0.426331 z"
         id="text6"
         style="font-size:3.175px;fill:#ffffff;stroke-width:0.264583"
         aria-label="FOLD ASYM" />
      <path
         d="M 5.0784012,66.176936 H 3.9110306 v 0.651123 h 1.0030395 v 0.272852 H 3.9110306 v 1.11156 h -0.306958 v -2.308386 h 1.4743286 z m 2.0711913,-0.0078 q 0.1410766,0.155029 0.2154907,0.379822 0.075964,0.224792 0.075964,0.510046 0,0.285254 -0.077515,0.511597 -0.075964,0.224792 -0.2139404,0.375171 -0.142627,0.156579 -0.3379639,0.235644 -0.1937866,0.07906 -0.4433838,0.07906 -0.2433959,0 -0.4433837,-0.08062 Q 5.7264236,68.0993 5.5868972,67.945821 5.4473708,67.792342 5.3714065,67.569099 q -0.074414,-0.223242 -0.074414,-0.510046 0,-0.282153 0.074414,-0.505395 0.074414,-0.224793 0.217041,-0.384473 0.1364258,-0.151929 0.3379639,-0.232544 0.2030883,-0.08061 0.4418334,-0.08061 0.2480469,0 0.4449341,0.08217 0.1984375,0.08061 0.3364136,0.230994 z m -0.027905,0.889868 q 0,-0.449585 -0.2015381,-0.692981 -0.2015381,-0.244946 -0.550354,-0.244946 -0.3519165,0 -0.5534545,0.244946 -0.1999878,0.243396 -0.1999878,0.692981 0,0.454236 0.2046386,0.696082 0.2046387,0.240295 0.5488037,0.240295 0.3441651,0 0.5472534,-0.240295 0.2046387,-0.241846 0.2046387,-0.696082 z m 2.2665285,1.153418 H 7.9278398 v -2.308386 h 0.306958 v 2.035534 h 1.1534179 z m 2.2572263,-1.151868 q 0,0.31471 -0.137976,0.570508 -0.136426,0.255798 -0.364319,0.396875 -0.15813,0.09767 -0.353466,0.141077 -0.193787,0.04341 -0.511597,0.04341 H 9.6951737 v -2.308386 h 0.5767093 q 0.337964,0 0.536401,0.04961 0.199988,0.04806 0.337964,0.133325 0.235644,0.147278 0.367419,0.392224 0.131775,0.244947 0.131775,0.58136 z m -0.32091,-0.0047 q 0,-0.271301 -0.09457,-0.457336 -0.09457,-0.186035 -0.282154,-0.293005 -0.136425,-0.07752 -0.289904,-0.106971 -0.153479,-0.031 -0.36742,-0.031 h -0.288354 v 1.781286 h 0.288354 q 0.221692,0 0.386023,-0.03256 0.165882,-0.03256 0.303858,-0.120923 0.172082,-0.110071 0.257348,-0.289905 0.08682,-0.179834 0.08682,-0.449585 z m 3.65404,-0.886767 q 0.141077,0.155029 0.215491,0.379822 0.07596,0.224792 0.07596,0.510046 0,0.285254 -0.07752,0.511597 -0.07596,0.224792 -0.21394,0.375171 -0.142627,0.156579 -0.337964,0.235644 -0.193787,0.07906 -0.443384,0.07906 -0.243396,0 -0.443384,-0.08062 -0.198437,-0.08061 -0.337963,-0.234094 -0.139527,-0.153479 -0.215491,-0.376722 -0.07441,-0.223242 -0.07441,-0.510046 0,-0.282153 0.07441,-0.505395 0.07441,-0.224793 0.217041,-0.384473 0.136426,-0.151929 0.337964,-0.232544 0.203088,-0.08061 0.441833,-0.08061 0.248047,0 0.444934,0.08217 0.198438,0.08061 0.336414,0.230994 z m -0.02791,0.889868 q 0,-0.449585 -0.201538,-0.692981 -0.201539,-0.244946 -0.550354,-0.244946 -0.351917,0 -0.553455,0.244946 -0.199988,0.243396 -0.199988,0.692981 0,0.454236 0.204639,0.696082 0.204638,0.240295 0.548804,0.240295 0.344165,0 0.547253,-0.240295 0.204639,-0.241846 0.204639,-0.696082 z m 2.28048,-0.882117 h -1.16737 v 0.651123 h 1.003039 v 0.272852 h -1.003039 v 1.11156 h -0.306958 v -2.308386 h 1.474328 z m 1.824696,0 h -1.167371 v 0.651123 h 1.00304 v 0.272852 h -1.00304 v 1.11156 h -0.306958 v -2.308386 h 1.474329 z m 2.027783,1.376661 q 0,0.134875 -0.06356,0.26665 -0.06201,0.131775 -0.175183,0.223242 -0.124024,0.09922 -0.289905,0.155029 -0.164331,0.05581 -0.396875,0.05581 -0.249597,0 -0.449585,-0.04651 -0.198437,-0.04651 -0.404626,-0.137976 v -0.384473 h 0.0217 q 0.175183,0.145728 0.404626,0.224793 0.229444,0.07906 0.430982,0.07906 0.285254,0 0.443383,-0.10697 0.159681,-0.106971 0.159681,-0.285254 0,-0.153479 -0.07597,-0.226343 -0.07441,-0.07286 -0.227893,-0.113171 -0.116272,-0.03101 -0.252698,-0.05116 -0.134875,-0.02015 -0.286804,-0.05116 -0.306958,-0.06511 -0.455786,-0.221692 -0.147278,-0.15813 -0.147278,-0.410827 0,-0.289905 0.244947,-0.47439 0.244946,-0.186035 0.621667,-0.186035 0.243396,0 0.446484,0.04651 0.203089,0.04651 0.359668,0.114721 v 0.362769 h -0.0217 q -0.131775,-0.111621 -0.347265,-0.184485 -0.213941,-0.07441 -0.438733,-0.07441 -0.246497,0 -0.396875,0.102319 -0.148828,0.10232 -0.148828,0.26355 0,0.144177 0.07441,0.226343 0.07441,0.08217 0.261999,0.125574 0.09922,0.0217 0.282154,0.05271 0.182934,0.031 0.310058,0.06356 0.257349,0.06821 0.387573,0.206189 0.130225,0.137976 0.130225,0.386023 z m 2.01383,0.658874 h -1.520838 v -2.308386 h 1.520838 v 0.272851 h -1.21388 v 0.63252 h 1.21388 v 0.272851 h -1.21388 v 0.857312 h 1.21388 z m 2.133203,-2.035535 h -0.824756 v 2.035535 h -0.306958 v -2.035535 h -0.824756 v -0.272851 h 1.95647 z"
         id="text6-7"
         style="font-size:3.175px;fill:#ffffff;stroke-width:0.264583"
         aria-label="FOLD OFFSET" />
      <path
         d="M 5.7071052,83.118091 H 4.5397346 v 0.651123 h 1.0030396 v 0.272851 H 4.5397346 v 1.11156 h -0.306958 v -2.308386 h 1.4743286 z m 2.0711914,-0.0078 q 0.1410766,0.15503 0.2154907,0.379822 0.075964,0.224793 0.075964,0.510047 0,0.285253 -0.077515,0.511596 -0.075964,0.224793 -0.2139404,0.375171 -0.142627,0.15658 -0.3379639,0.235645 -0.1937866,0.07906 -0.4433838,0.07906 -0.243396,0 -0.4433838,-0.08062 -0.1984375,-0.08062 -0.3379638,-0.234094 -0.1395264,-0.153479 -0.2154907,-0.376721 -0.074414,-0.223242 -0.074414,-0.510046 0,-0.282154 0.074414,-0.505396 0.074414,-0.224792 0.217041,-0.384473 0.1364257,-0.151928 0.3379638,-0.232544 0.2030884,-0.08062 0.4418335,-0.08062 0.2480469,0 0.4449341,0.08217 0.1984375,0.08062 0.3364136,0.230993 z m -0.027905,0.889869 q 0,-0.449585 -0.2015381,-0.692981 -0.2015381,-0.244947 -0.550354,-0.244947 -0.3519165,0 -0.5534546,0.244947 -0.1999878,0.243396 -0.1999878,0.692981 0,0.454235 0.2046387,0.696081 0.2046387,0.240295 0.5488037,0.240295 0.344165,0 0.5472534,-0.240295 0.2046387,-0.241846 0.2046387,-0.696081 z M 10.01692,85.153625 H 8.5565438 v -2.308386 h 0.306958 v 2.035535 H 10.01692 Z m 2.257226,-1.151867 q 0,0.314709 -0.137976,0.570508 -0.136426,0.255798 -0.364319,0.396875 -0.158129,0.09767 -0.353466,0.141076 -0.193787,0.04341 -0.511597,0.04341 h -0.58291 v -2.308386 h 0.576709 q 0.337964,0 0.536401,0.04961 0.199988,0.04806 0.337964,0.133325 0.235645,0.147278 0.367419,0.392224 0.131775,0.244946 0.131775,0.58136 z m -0.32091,-0.0047 q 0,-0.271301 -0.09457,-0.457336 -0.09457,-0.186036 -0.282153,-0.293006 -0.136426,-0.07751 -0.289905,-0.10697 -0.153479,-0.03101 -0.36742,-0.03101 h -0.288354 v 1.781287 h 0.288354 q 0.221692,0 0.386023,-0.03256 0.165882,-0.03256 0.303858,-0.120923 0.172082,-0.110071 0.257348,-0.289905 0.08682,-0.179834 0.08682,-0.449585 z m 3.858679,0.985986 q -0.189136,0.08682 -0.413929,0.151929 -0.223242,0.06356 -0.432531,0.06356 -0.269751,0 -0.494544,-0.07441 -0.224792,-0.07441 -0.382922,-0.223242 -0.15968,-0.150379 -0.246497,-0.375171 -0.08682,-0.226343 -0.08682,-0.52865 0,-0.553455 0.322461,-0.872815 0.324011,-0.320911 0.888318,-0.320911 0.196887,0 0.401526,0.04806 0.206188,0.04651 0.443383,0.159681 v 0.364318 h -0.02791 q -0.04806,-0.03721 -0.139526,-0.09767 -0.09147,-0.06046 -0.179834,-0.100769 -0.106971,-0.04806 -0.243396,-0.07906 -0.134876,-0.03256 -0.306958,-0.03256 -0.387574,0 -0.613916,0.249597 -0.224793,0.248047 -0.224793,0.672827 0,0.448035 0.235645,0.697632 0.235644,0.248047 0.641821,0.248047 0.148828,0 0.296106,-0.02946 0.148828,-0.02945 0.260449,-0.07596 V 84.262207 H 14.88949 v -0.269751 h 0.922425 z m 2.356445,0.170532 h -0.327112 l -0.226342,-0.643371 h -0.998389 l -0.226343,0.643371 h -0.311609 l 0.840259,-2.308386 h 0.409277 z m -0.648022,-0.906921 -0.404627,-1.133264 -0.406177,1.133264 z m 1.812292,0.906921 h -0.911572 v -0.235644 h 0.302307 v -1.837097 h -0.302307 v -0.235645 h 0.911572 v 0.235645 h -0.302307 v 1.837097 h 0.302307 z m 2.283581,0 H 21.23639 l -1.094507,-2.06499 v 2.06499 h -0.286804 v -2.308386 h 0.47594 l 0.998388,1.885157 v -1.885157 h 0.286804 z"
         id="text6-7-4"
         style="font-size:3.175px;fill:#ffffff;stroke-width:0.264583"
         aria-label="FOLD GAIN" />
      <path
         d="M 4.6778007,103.18729 H 3.1569633 v -2.30839 h 1.5208374 v 0.27285 H 3.4639213 v 0.63252 h 1.2138794 v 0.27285 H 3.4639213 v 0.85731 h 1.2138794 z m 2.2479248,0 H 6.5459038 L 5.4513969,101.1223 v 2.06499 H 5.1645927 v -2.30839 h 0.47594 l 0.9983886,1.88516 v -1.88516 h 0.2868042 z m 2.4339598,-2.30839 -0.8402588,2.30839 H 8.1101492 L 7.2698904,100.8789 h 0.3286621 l 0.7239868,2.03088 0.7239868,-2.03088 z m 3.2494137,2.14095 q -0.08527,0.0372 -0.155029,0.0698 -0.06821,0.0326 -0.179834,0.0682 -0.09457,0.0295 -0.206189,0.0496 -0.110071,0.0217 -0.243396,0.0217 -0.251147,0 -0.457336,-0.0698 -0.204639,-0.0713 -0.356568,-0.22169 -0.148828,-0.14728 -0.232544,-0.37362 -0.08371,-0.22789 -0.08371,-0.52865 0,-0.28526 0.08061,-0.51005 0.08061,-0.22479 0.232544,-0.37982 0.147278,-0.15038 0.355017,-0.22944 0.209289,-0.0791 0.463537,-0.0791 0.186036,0 0.37052,0.045 0.186036,0.045 0.412378,0.15813 v 0.36432 h -0.02325 q -0.190686,-0.15968 -0.378272,-0.23254 -0.187585,-0.0729 -0.401525,-0.0729 -0.175183,0 -0.31626,0.0574 -0.139527,0.0558 -0.249597,0.17519 -0.106971,0.11627 -0.167432,0.29455 -0.05891,0.17673 -0.05891,0.40928 0,0.24339 0.06511,0.41858 0.06666,0.17518 0.170532,0.28525 0.108521,0.11472 0.252698,0.17053 0.145728,0.0543 0.306958,0.0543 0.221692,0 0.415479,-0.076 0.193786,-0.076 0.362768,-0.22789 h 0.0217 z m 2.254126,-2.14095 -0.840258,2.30839 H 13.613689 L 12.77343,100.8789 h 0.328663 l 0.723986,2.03088 0.723987,-2.03088 z"
         id="text7"
         style="font-size:3.175px;fill:#ffffff;stroke-width:0.264583"
         aria-label="ENV CV" />
      <path
         d="m 77.533632,102.84592 h -1.520838 v -2.30839 h 1.520838 v 0.27285 h -1.21388 v 0.63252 h 1.21388 v 0.27285 h -1.21388 v 0.85732 h 1.21388 z m 2.247925,0 h -0.379822 l -1.094507,-2.06499 v 2.06499 h -0.286804 v -2.30839 h 0.47594 l 0.998388,1.88516 v -1.88516 h 0.286805 z m 2.433959,-2.30839 -0.840258,2.30839 H 80.96598 l -0.840258,-2.30839 h 0.328662 l 0.723986,2.03088 0.723987,-2.03088 z m 3.249415,2.14096 q -0.08527,0.0372 -0.15503,0.0698 -0.06821,0.0326 -0.179834,0.0682 -0.09457,0.0295 -0.206189,0.0496 -0.110071,0.0217 -0.243396,0.0217 -0.251147,0 -0.457336,-0.0698 -0.204639,-0.0713 -0.356568,-0.22169 -0.148828,-0.14728 -0.232543,-0.37362 -0.08372,-0.22789 -0.08372,-0.52865 0,-0.28525 0.08061,-0.51005 0.08062,-0.22479 0.232544,-0.37982 0.147278,-0.15038 0.355017,-0.22944 0.20929,-0.0791 0.463538,-0.0791 0.186035,0 0.37052,0.045 0.186035,0.045 0.412378,0.15813 v 0.36432 h -0.02326 q -0.190686,-0.15968 -0.378271,-0.23254 -0.187586,-0.0729 -0.401526,-0.0729 -0.175183,0 -0.31626,0.0574 -0.139526,0.0558 -0.249597,0.17519 -0.10697,0.11627 -0.167432,0.29455 -0.05891,0.17674 -0.05891,0.40928 0,0.2434 0.06511,0.41858 0.06666,0.17518 0.170533,0.28525 0.10852,0.11472 0.252697,0.17053 0.145728,0.0543 0.306958,0.0543 0.221692,0 0.415479,-0.076 0.193786,-0.076 0.362768,-0.22789 h 0.02171 z m 2.254125,-2.14096 -0.840258,2.30839 H 86.46952 l -0.840258,-2.30839 h 0.328662 l 0.723986,2.03088 0.723987,-2.03088 z"
         id="text7-5"
         style="font-size:3.175px;fill:#ffffff;stroke-width:0.264583"
         aria-label="ENV CV" />
      <path
         d="m 73.258801,51.110362 q 0,0.31471 -0.137976,0.570508 -0.136426,0.255798 -0.364319,0.396875 -0.15813,0.09767 -0.353466,0.141077 -0.193787,0.04341 -0.511597,0.04341 h -0.58291 v -2.308386 h 0.576709 q 0.337964,0 0.536401,0.04961 0.199988,0.04806 0.337964,0.133325 0.235644,0.147278 0.367419,0.392224 0.131775,0.244947 0.131775,0.58136 z m -0.32091,-0.0047 q 0,-0.271301 -0.09457,-0.457336 -0.09457,-0.186035 -0.282154,-0.293005 -0.136425,-0.07751 -0.289904,-0.106971 -0.153479,-0.03101 -0.36742,-0.03101 h -0.288354 v 1.781286 h 0.288354 q 0.221692,0 0.386023,-0.03256 0.165881,-0.03256 0.303858,-0.120923 0.172082,-0.110071 0.257348,-0.289905 0.08682,-0.179834 0.08682,-0.449585 z m 1.630908,1.156519 h -0.911572 v -0.235645 h 0.302307 v -1.837097 h -0.302307 v -0.235644 h 0.911572 v 0.235644 h -0.302307 v 1.837097 h 0.302307 z m 2.199866,-0.658875 q 0,0.134876 -0.06356,0.266651 -0.06201,0.131775 -0.175184,0.223242 -0.124023,0.09922 -0.289904,0.155029 -0.164331,0.05581 -0.396875,0.05581 -0.249598,0 -0.449585,-0.04651 -0.198438,-0.04651 -0.404627,-0.137976 V 51.73513 h 0.0217 q 0.175183,0.145728 0.404627,0.224793 0.229443,0.07906 0.430981,0.07906 0.285254,0 0.443384,-0.10697 0.15968,-0.106971 0.15968,-0.285254 0,-0.153479 -0.07596,-0.226343 -0.07441,-0.07286 -0.227893,-0.113172 -0.116272,-0.03101 -0.252698,-0.05116 -0.134875,-0.02015 -0.286804,-0.05116 -0.306958,-0.06511 -0.455786,-0.221692 -0.147278,-0.15813 -0.147278,-0.410827 0,-0.289905 0.244946,-0.47439 0.244946,-0.186035 0.621668,-0.186035 0.243396,0 0.446484,0.04651 0.203088,0.04651 0.359668,0.114721 v 0.362769 h -0.0217 q -0.131775,-0.111621 -0.347266,-0.184485 -0.21394,-0.07441 -0.438733,-0.07441 -0.246496,0 -0.396875,0.102319 -0.148828,0.10232 -0.148828,0.26355 0,0.144177 0.07441,0.226343 0.07441,0.08217 0.262,0.125574 0.09922,0.0217 0.282153,0.05271 0.182935,0.03101 0.310059,0.06356 0.257348,0.06821 0.387573,0.206188 0.130225,0.137977 0.130225,0.386023 z m 2.139404,-1.37666 h -0.824756 v 2.035535 h -0.306958 v -2.035535 h -0.824756 v -0.272851 h 1.95647 z m 3.246313,2.035535 H 81.82727 l -0.226342,-0.643372 h -0.998389 l -0.226343,0.643372 h -0.311609 l 0.840259,-2.308386 h 0.409277 z m -0.648022,-0.906921 -0.404627,-1.133265 -0.406177,1.133265 z"
         id="text8"
         style="font-size:3.175px;fill:#ffffff;stroke-width:0.264583"
         aria-label="DIST A" />
      <path
         d="m 73.510274,66.953716 q 0,0.314709 -0.137976,0.570507 -0.136426,0.255799 -0.364319,0.396875 -0.15813,0.09767 -0.353467,0.141077 -0.193787,0.04341 -0.511597,0.04341 h -0.58291 v -2.308386 h 0.576709 q 0.337964,0 0.536402,0.04961 0.199987,0.04806 0.337963,0.133326 0.235645,0.147277 0.36742,0.392224 0.131775,0.244946 0.131775,0.58136 z m -0.320911,-0.0047 q 0,-0.271302 -0.09457,-0.457337 -0.09457,-0.186035 -0.282153,-0.293005 -0.136426,-0.07752 -0.289905,-0.10697 -0.153479,-0.03101 -0.367419,-0.03101 h -0.288355 v 1.781286 h 0.288355 q 0.221692,0 0.386023,-0.03256 0.165881,-0.03256 0.303857,-0.120923 0.172083,-0.11007 0.257349,-0.289904 0.08682,-0.179834 0.08682,-0.449585 z m 1.630908,1.156518 h -0.911572 v -0.235644 h 0.302307 v -1.837097 h -0.302307 v -0.235645 h 0.911572 v 0.235645 h -0.302307 v 1.837097 h 0.302307 z m 2.199866,-0.658874 q 0,0.134875 -0.06356,0.26665 -0.06201,0.131775 -0.175183,0.223242 -0.124024,0.09922 -0.289905,0.15503 -0.164331,0.05581 -0.396875,0.05581 -0.249597,0 -0.449585,-0.04651 -0.198437,-0.04651 -0.404626,-0.137976 v -0.384472 h 0.0217 q 0.175183,0.145727 0.404626,0.224792 0.229444,0.07906 0.430982,0.07906 0.285254,0 0.443383,-0.10697 0.159681,-0.10697 0.159681,-0.285254 0,-0.153479 -0.07596,-0.226343 -0.07441,-0.07286 -0.227893,-0.113171 -0.116272,-0.03101 -0.252698,-0.05116 -0.134875,-0.02015 -0.286804,-0.05116 -0.306958,-0.06511 -0.455786,-0.221691 -0.147278,-0.15813 -0.147278,-0.410828 0,-0.289905 0.244947,-0.47439 0.244946,-0.186035 0.621667,-0.186035 0.243396,0 0.446484,0.04651 0.203089,0.04651 0.359668,0.114722 v 0.362768 h -0.0217 q -0.131775,-0.111621 -0.347265,-0.184485 -0.213941,-0.07441 -0.438733,-0.07441 -0.246497,0 -0.396875,0.10232 -0.148828,0.102319 -0.148828,0.263549 0,0.144178 0.07441,0.226343 0.07441,0.08217 0.261999,0.125574 0.09922,0.0217 0.282154,0.05271 0.182934,0.03101 0.310058,0.06356 0.257349,0.06821 0.387573,0.206189 0.130225,0.137976 0.130225,0.386023 z m 2.139404,-1.37666 h -0.824756 v 2.035534 h -0.306958 v -2.035534 h -0.824755 v -0.272852 h 1.956469 z m 3.167249,1.3255 q 0,0.172083 -0.06511,0.303857 -0.06511,0.131775 -0.175183,0.217041 -0.130224,0.10232 -0.286804,0.145728 -0.155029,0.04341 -0.395325,0.04341 h -0.818554 v -2.308386 h 0.683679 q 0.252698,0 0.378271,0.0186 0.125574,0.0186 0.240296,0.07751 0.127124,0.06666 0.184485,0.172083 0.05736,0.103869 0.05736,0.249597 0,0.164331 -0.08371,0.280603 -0.08372,0.114722 -0.223243,0.184485 v 0.0124 q 0.234095,0.04806 0.36897,0.206189 0.134876,0.15658 0.134876,0.396875 z m -0.516248,-1.040247 q 0,-0.08371 -0.02791,-0.141076 -0.0279,-0.05736 -0.08992,-0.09302 -0.07286,-0.04186 -0.176734,-0.05116 -0.103869,-0.01085 -0.257348,-0.01085 h -0.365869 v 0.666625 h 0.396875 q 0.144177,0 0.229443,-0.01395 0.08527,-0.0155 0.15813,-0.06201 0.07286,-0.04651 0.102319,-0.119372 0.03101,-0.07442 0.03101,-0.175184 z m 0.196887,1.052649 q 0,-0.139526 -0.04186,-0.221692 -0.04186,-0.08217 -0.151928,-0.139526 -0.07441,-0.03876 -0.181385,-0.04961 -0.10542,-0.0124 -0.257348,-0.0124 h -0.482141 v 0.858863 h 0.406176 q 0.201538,0 0.330213,-0.02015 0.128674,-0.0217 0.21084,-0.07752 0.08682,-0.06046 0.127124,-0.137976 0.04031,-0.07751 0.04031,-0.199988 z"
         id="text9"
         style="font-size:3.175px;fill:#ffffff;stroke-width:0.264583"
         inkscape:label="text9"
         aria-label="DIST B" />
      <path
         d="m 70.995457,83.928737 q 0,0.314709 -0.137976,0.570508 -0.136425,0.255798 -0.364318,0.396875 -0.15813,0.09767 -0.353467,0.141076 -0.193787,0.04341 -0.511597,0.04341 h -0.58291 v -2.308387 h 0.576709 q 0.337964,0 0.536401,0.04961 0.199988,0.04806 0.337964,0.133325 0.235645,0.147278 0.36742,0.392224 0.131774,0.244946 0.131774,0.58136 z m -0.32091,-0.0047 q 0,-0.271301 -0.09457,-0.457336 -0.09457,-0.186036 -0.282153,-0.293006 -0.136426,-0.07751 -0.289905,-0.10697 -0.153479,-0.03101 -0.36742,-0.03101 h -0.288354 v 1.781287 h 0.288354 q 0.221692,0 0.386023,-0.03256 0.165882,-0.03256 0.303858,-0.120923 0.172082,-0.110071 0.257348,-0.289905 0.08682,-0.179834 0.08682,-0.449585 z m 1.630908,1.156519 H 71.393883 V 84.84496 h 0.302307 v -1.837097 h -0.302307 v -0.235645 h 0.911572 v 0.235645 h -0.302307 v 1.837097 h 0.302307 z m 2.199866,-0.658875 q 0,0.134876 -0.06356,0.26665 -0.06201,0.131775 -0.175183,0.223243 -0.124024,0.09922 -0.289905,0.155029 -0.164331,0.05581 -0.396875,0.05581 -0.249597,0 -0.449585,-0.04651 -0.198438,-0.04651 -0.404627,-0.137976 v -0.384473 h 0.0217 q 0.175183,0.145727 0.404626,0.224792 0.229443,0.07906 0.430981,0.07906 0.285254,0 0.443384,-0.10697 0.15968,-0.10697 0.15968,-0.285254 0,-0.153479 -0.07596,-0.226343 -0.07441,-0.07286 -0.227893,-0.113171 -0.116272,-0.03101 -0.252698,-0.05116 -0.134875,-0.02015 -0.286804,-0.05116 -0.306958,-0.06511 -0.455786,-0.221692 -0.147278,-0.15813 -0.147278,-0.410828 0,-0.289905 0.244946,-0.474389 0.244947,-0.186036 0.621668,-0.186036 0.243396,0 0.446484,0.04651 0.203089,0.04651 0.359668,0.114722 v 0.362768 h -0.0217 q -0.131775,-0.111621 -0.347266,-0.184484 -0.21394,-0.07441 -0.438732,-0.07441 -0.246497,0 -0.396875,0.102319 -0.148829,0.102319 -0.148829,0.26355 0,0.144177 0.07441,0.226342 0.07441,0.08217 0.262,0.125574 0.09922,0.0217 0.282153,0.05271 0.182935,0.03101 0.310059,0.06356 0.257348,0.06821 0.387573,0.206189 0.130225,0.137976 0.130225,0.386023 z m 2.139404,-1.37666 h -0.824756 v 2.035535 H 75.513011 V 83.04507 h -0.824756 v -0.272852 h 1.95647 z m 3.351733,1.865002 q -0.189136,0.08682 -0.413928,0.151929 -0.223242,0.06356 -0.432532,0.06356 -0.269751,0 -0.494543,-0.07441 -0.224793,-0.07441 -0.382923,-0.223242 -0.15968,-0.150379 -0.246496,-0.375171 -0.08682,-0.226343 -0.08682,-0.52865 0,-0.553455 0.322461,-0.872815 0.324012,-0.320911 0.888318,-0.320911 0.196887,0 0.401526,0.04806 0.206189,0.04651 0.443384,0.15968 v 0.364319 h -0.0279 q -0.04806,-0.03721 -0.139527,-0.09767 -0.09147,-0.06046 -0.179834,-0.100769 -0.10697,-0.04806 -0.243396,-0.07906 -0.134875,-0.03256 -0.306958,-0.03256 -0.387573,0 -0.613916,0.249597 -0.224792,0.248047 -0.224792,0.672827 0,0.448035 0.235644,0.697632 0.235645,0.248047 0.641822,0.248047 0.148828,0 0.296106,-0.02946 0.148828,-0.02945 0.260449,-0.07596 v -0.565857 h -0.618567 v -0.269751 h 0.922424 z m 2.356446,0.170533 H 82.025792 L 81.799449,84.437233 H 80.80106 l -0.226342,0.643372 h -0.311609 l 0.840259,-2.308387 h 0.409277 z m -0.648023,-0.906922 -0.404626,-1.133264 -0.406177,1.133264 z m 1.812293,0.906922 H 82.605601 V 84.84496 h 0.302308 v -1.837097 h -0.302308 v -0.235645 h 0.911573 v 0.235645 h -0.302307 v 1.837097 h 0.302307 z m 2.283581,0 h -0.379822 l -1.094507,-2.064991 v 2.064991 h -0.286804 v -2.308387 h 0.47594 l 0.998389,1.885157 v -1.885157 h 0.286804 z"
         id="text10"
         style="font-size:3.175px;fill:#ffffff;stroke-width:0.264583"
         aria-label="DIST GAIN" />
      <path
         d="m 39.55575,101.42693 h -0.327112 l -0.226342,-0.64337 h -0.998389 l -0.226343,0.64337 h -0.311609 l 0.840259,-2.308383 h 0.409277 z m -0.648022,-0.90692 -0.404627,-1.133262 -0.406176,1.133262 z m 2.458764,-1.128611 h -0.824755 v 2.035531 h -0.306958 v -2.035531 h -0.824756 v -0.272852 h 1.956469 z m 1.847949,0 h -0.824755 v 2.035531 h -0.306958 v -2.035531 h -0.824756 v -0.272852 h 1.956469 z m 1.944068,2.035531 h -0.327112 l -0.226343,-0.64337 h -0.998389 l -0.226342,0.64337 h -0.311609 l 0.840259,-2.308383 h 0.409277 z m -0.648023,-0.90692 -0.404626,-1.133262 -0.406177,1.133262 z m 2.781226,0.73949 q -0.08527,0.0372 -0.15503,0.0698 -0.06821,0.0326 -0.179834,0.0682 -0.09457,0.0294 -0.206188,0.0496 -0.110071,0.0217 -0.243396,0.0217 -0.251148,0 -0.457337,-0.0698 -0.204639,-0.0713 -0.356567,-0.22169 -0.148828,-0.14728 -0.232544,-0.37362 -0.08372,-0.2279 -0.08372,-0.52865 0,-0.285258 0.08062,-0.510051 0.08062,-0.224792 0.232544,-0.379822 0.147278,-0.150378 0.355017,-0.229443 0.20929,-0.07906 0.463538,-0.07906 0.186035,0 0.37052,0.04496 0.186035,0.04496 0.412378,0.15813 v 0.364318 h -0.02325 q -0.190686,-0.15968 -0.378271,-0.232544 -0.187586,-0.07286 -0.401526,-0.07286 -0.175183,0 -0.31626,0.05736 -0.139526,0.05581 -0.249597,0.175183 -0.10697,0.116272 -0.167432,0.294555 -0.05891,0.176732 -0.05891,0.409282 0,0.24339 0.06511,0.41857 0.06666,0.17519 0.170532,0.28526 0.10852,0.11472 0.252698,0.17053 0.145727,0.0543 0.306958,0.0543 0.221692,0 0.415478,-0.076 0.193787,-0.076 0.362769,-0.2279 h 0.0217 z m 2.289782,0.16743 h -0.398425 l -0.913122,-1.02784 -0.229444,0.24495 v 0.78289 h -0.306958 v -2.308383 h 0.306958 v 1.204573 l 1.120862,-1.204573 h 0.37207 l -1.030944,1.085203 z"
         id="text11"
         style="font-size:3.175px;fill:#ffffff;stroke-width:0.264583"
         aria-label="ATTACK" />
      <path
         d="m 40.817643,82.545589 q 0,0.314709 -0.137976,0.570508 -0.136426,0.255798 -0.364319,0.396874 -0.15813,0.09767 -0.353467,0.141077 -0.193786,0.04341 -0.511596,0.04341 H 38.867374 V 81.38907 h 0.576709 q 0.337964,0 0.536402,0.04961 0.199988,0.04806 0.337964,0.133325 0.235644,0.147278 0.367419,0.392224 0.131775,0.244946 0.131775,0.58136 z m -0.320911,-0.0047 q 0,-0.271301 -0.09457,-0.457337 -0.09457,-0.186035 -0.282153,-0.293005 -0.136426,-0.07751 -0.289905,-0.10697 -0.153479,-0.03101 -0.367419,-0.03101 h -0.288355 v 1.781287 h 0.288355 q 0.221692,0 0.386023,-0.03256 0.165881,-0.03256 0.303857,-0.120922 0.172083,-0.110071 0.257349,-0.289905 0.08682,-0.179834 0.08682,-0.449585 z m 2.337842,1.156518 H 41.313737 V 81.38907 h 1.520837 v 0.272852 h -1.213879 v 0.632519 h 1.213879 v 0.272852 h -1.213879 v 0.857312 h 1.213879 z m 2.269629,-0.167431 q -0.08527,0.03721 -0.155029,0.06976 -0.06821,0.03256 -0.179834,0.06821 -0.09457,0.02945 -0.206189,0.04961 -0.110071,0.0217 -0.243396,0.0217 -0.251147,0 -0.457336,-0.06976 -0.204639,-0.07131 -0.356568,-0.221692 -0.148828,-0.147278 -0.232544,-0.37362 -0.08372,-0.227893 -0.08372,-0.52865 0,-0.285254 0.08062,-0.510047 0.08062,-0.224792 0.232544,-0.379821 0.147277,-0.150379 0.355017,-0.229444 0.209289,-0.07906 0.463537,-0.07906 0.186035,0 0.37052,0.04496 0.186035,0.04496 0.412378,0.15813 v 0.364318 h -0.02325 q -0.190686,-0.15968 -0.378272,-0.232543 -0.187585,-0.07286 -0.401526,-0.07286 -0.175183,0 -0.316259,0.05736 -0.139527,0.05581 -0.249597,0.175183 -0.106971,0.116272 -0.167432,0.294555 -0.05891,0.176734 -0.05891,0.409278 0,0.243396 0.06511,0.418579 0.06666,0.175183 0.170532,0.285254 0.108521,0.114721 0.252698,0.170532 0.145728,0.05426 0.306958,0.05426 0.221692,0 0.415479,-0.07596 0.193786,-0.07597 0.362768,-0.227893 h 0.0217 z m 2.254126,0.167431 h -0.327112 l -0.226342,-0.643371 h -0.998389 l -0.226343,0.643371 h -0.311609 l 0.840259,-2.308386 h 0.409277 z m -0.648022,-0.906921 -0.404627,-1.133264 -0.406176,1.133264 z m 2.508374,-1.401465 -0.812354,1.296045 v 1.012341 H 48.099369 V 82.717671 L 47.283915,81.38907 h 0.339514 l 0.63097,1.032495 0.63717,-1.032495 z"
         id="text12"
         style="font-size:3.175px;fill:#ffffff;stroke-width:0.264583"
         aria-label="DECAY&#10;" />
      <path
         d="m 42.175986,67.180603 q -0.189135,0.08682 -0.413928,0.151929 -0.223242,0.06356 -0.432532,0.06356 -0.26975,0 -0.494543,-0.07441 -0.224792,-0.07441 -0.382922,-0.223242 -0.15968,-0.150379 -0.246497,-0.375171 -0.08682,-0.226343 -0.08682,-0.52865 0,-0.553455 0.322461,-0.872815 0.324011,-0.320911 0.888317,-0.320911 0.196888,0 0.401526,0.04806 0.206189,0.04651 0.443384,0.15968 v 0.364319 h -0.0279 q -0.04806,-0.03721 -0.139526,-0.09767 -0.09147,-0.06046 -0.179834,-0.100769 -0.106971,-0.04806 -0.243396,-0.07906 -0.134876,-0.03256 -0.306958,-0.03256 -0.387574,0 -0.613916,0.249597 -0.224793,0.248047 -0.224793,0.672827 0,0.448035 0.235645,0.697632 0.235644,0.248047 0.641821,0.248047 0.148828,0 0.296106,-0.02946 0.148828,-0.02945 0.260449,-0.07596 v -0.565857 h -0.618567 v -0.269751 h 0.922424 z m 2.356446,0.170532 H 44.20532 l -0.226343,-0.643371 h -0.998389 l -0.226342,0.643371 h -0.311609 l 0.840259,-2.308386 h 0.409277 z m -0.648023,-0.906921 -0.404626,-1.133264 -0.406177,1.133264 z m 1.812293,0.906921 H 44.78513 v -0.235644 h 0.302307 V 65.278394 H 44.78513 v -0.235645 h 0.911572 v 0.235645 h -0.302307 v 1.837097 h 0.302307 z m 2.283581,0 h -0.379821 l -1.094507,-2.06499 v 2.06499 h -0.286804 v -2.308386 h 0.475939 l 0.998389,1.885156 v -1.885156 h 0.286804 z"
         id="text14"
         style="font-size:3.175px;fill:#ffffff;stroke-width:0.264583"
         aria-label="GAIN" />
      <path
         d="M 34.478387,60.435387 H 32.95755 V 58.127 h 1.520837 v 0.272852 h -1.213879 v 0.63252 h 1.213879 v 0.272851 h -1.213879 v 0.857312 h 1.213879 z m 2.247925,0 H 36.34649 l -1.094506,-2.064991 v 2.064991 H 34.965179 V 58.127 h 0.47594 l 0.998389,1.885157 V 58.127 h 0.286804 z M 39.160272,58.127 38.320013,60.435387 H 37.910736 L 37.070477,58.127 h 0.328662 l 0.723987,2.030884 0.723987,-2.030884 z m 2.940906,0.272852 h -1.167371 v 0.651123 h 1.00304 v 0.272852 h -1.00304 v 1.11156 H 40.626849 V 58.127 h 1.474329 z m 2.071191,-0.0078 q 0.141077,0.155029 0.215491,0.379821 0.07596,0.224793 0.07596,0.510047 0,0.285254 -0.07752,0.511596 -0.07596,0.224793 -0.21394,0.375171 -0.142627,0.15658 -0.337964,0.235645 -0.193787,0.07906 -0.443384,0.07906 -0.243396,0 -0.443383,-0.08062 -0.198438,-0.08062 -0.337964,-0.234095 -0.139527,-0.153479 -0.215491,-0.376721 -0.07441,-0.223242 -0.07441,-0.510046 0,-0.282154 0.07441,-0.505396 0.07441,-0.224792 0.217041,-0.384472 0.136426,-0.151929 0.337964,-0.232544 0.203088,-0.08062 0.441833,-0.08062 0.248047,0 0.444934,0.08217 0.198438,0.08062 0.336414,0.230994 z m -0.02791,0.889868 q 0,-0.449585 -0.201538,-0.692981 -0.201538,-0.244947 -0.550354,-0.244947 -0.351917,0 -0.553455,0.244947 -0.199988,0.243396 -0.199988,0.692981 0,0.454236 0.204639,0.696081 0.204639,0.240296 0.548804,0.240296 0.344165,0 0.547253,-0.240296 0.204639,-0.241845 0.204639,-0.696081 z m 2.266529,1.153418 H 44.950617 V 58.127 h 0.306958 v 2.035535 h 1.153418 z m 1.767334,0 H 46.717951 V 58.127 h 0.306958 v 2.035535 h 1.153418 z m 1.996777,-2.043286 q 0.141077,0.155029 0.215491,0.379821 0.07596,0.224793 0.07596,0.510047 0,0.285254 -0.07751,0.511596 -0.07597,0.224793 -0.213941,0.375171 -0.142627,0.15658 -0.337964,0.235645 -0.193786,0.07906 -0.443384,0.07906 -0.243396,0 -0.443383,-0.08062 -0.198438,-0.08062 -0.337964,-0.234095 -0.139527,-0.153479 -0.215491,-0.376721 -0.07441,-0.223242 -0.07441,-0.510046 0,-0.282154 0.07441,-0.505396 0.07441,-0.224792 0.217041,-0.384472 0.136426,-0.151929 0.337964,-0.232544 0.203088,-0.08062 0.441833,-0.08062 0.248047,0 0.444935,0.08217 0.198437,0.08062 0.336413,0.230994 z m -0.0279,0.889868 q 0,-0.449585 -0.201538,-0.692981 -0.201538,-0.244947 -0.550354,-0.244947 -0.351917,0 -0.553455,0.244947 -0.199988,0.243396 -0.199988,0.692981 0,0.454236 0.204639,0.696081 0.204639,0.240296 0.548804,0.240296 0.344165,0 0.547253,-0.240296 0.204639,-0.241845 0.204639,-0.696081 z M 53.640008,58.127 53.040044,60.435387 h -0.345715 l -0.485242,-1.916162 -0.474389,1.916162 H 51.396734 L 50.785918,58.127 h 0.31471 L 51.58587,60.046263 52.06336,58.127 h 0.311609 L 52.85711,60.064867 53.339251,58.127 Z m 1.973523,2.308387 H 54.092693 V 58.127 h 1.520838 v 0.272852 h -1.21388 v 0.63252 h 1.21388 v 0.272851 h -1.21388 v 0.857312 h 1.21388 z m 2.396753,0 h -0.398426 l -0.772046,-0.917774 h -0.432531 v 0.917774 H 56.100323 V 58.127 h 0.646472 q 0.209289,0 0.348816,0.02791 0.139526,0.02636 0.251147,0.09612 0.125574,0.07906 0.195337,0.199988 0.07131,0.119372 0.07131,0.303857 0,0.249597 -0.125574,0.418579 -0.125574,0.167432 -0.345715,0.252698 z m -0.717786,-1.658814 q 0,-0.09922 -0.03566,-0.175183 -0.03411,-0.07752 -0.114721,-0.130225 -0.06666,-0.04496 -0.15813,-0.06201 -0.09147,-0.0186 -0.215491,-0.0186 h -0.361218 v 0.871265 h 0.310058 q 0.145728,0 0.254248,-0.02481 0.108521,-0.02635 0.184485,-0.09612 0.06976,-0.06511 0.10232,-0.148828 0.03411,-0.08527 0.03411,-0.215491 z"
         id="text15"
         style="font-size:3.175px;fill:#ffffff;stroke-width:0.264583"
         aria-label="ENV FOLLOWER" />
    </g>
    <g
       id="g40"
       inkscape:label="labels"
       style="display:none">
      <text
         xml:space="preserve"
         style="font-size:3.175px;fill:#ffffff;stroke-width:0.264583"
         x="7.0414896"
         y="15.59187"
         id="text16"><tspan
           sodipodi:role="line"
           id="tspan16"
           style="stroke-width:0.264583"
           x="7.0414896"
           y="15.59187">IN L</tspan></text>
      <text
         xml:space="preserve"
         style="font-size:3.175px;fill:#ffffff;stroke-width:0.264583"
         x="18.274242"
         y="16.027414"
         id="text17"><tspan
           sodipodi:role="line"
           id="tspan17"
           style="stroke-width:0.264583"
           x="18.274242"
           y="16.027414">IN R</tspan></text>
      <text
         xml:space="preserve"
         style="font-size:3.175px;fill:#ffffff;stroke-width:0.264583"
         x="65.081337"
         y="15.961908"
         id="text18"><tspan
           sodipodi:role="line"
           id="tspan18"
           style="stroke-width:0.264583"
           x="65.081337"
           y="15.961908">OUT L</tspan></text>
      <text
         xml:space="preserve"
         style="font-size:3.175px;fill:#ffffff;stroke-width:0.264583"
         x="78.200195"
         y="16.271711"
         id="text19"><tspan
           sodipodi:role="line"
           id="tspan19"
           style="stroke-width:0.264583"
           x="78.200195"
           y="16.271711">OUT R</tspan></text>
      <text
         xml:space="preserve"
         style="font-size:3.175px;fill:#ffffff;stroke-width:0.264583"
         x="29.67485"
         y="31.435226"
         id="text21"><tspan
           sodipodi:role="line"
           id="tspan20"
           style="stroke-width:0.264583"
           x="29.67485"
           y="31.435226">FOLD</tspan><tspan
           sodipodi:role="line"
           style="stroke-width:0.264583"
           x="29.67485"
           y="35.403976"
           id="tspan21">MIX</tspan></text>
      <text
         xml:space="preserve"
         style="font-size:3.175px;fill:#ffffff;stroke-width:0.264583"
         x="43.497967"
         y="31.248432"
         id="text23"><tspan
           sodipodi:role="line"
           id="tspan22"
           style="stroke-width:0.264583"
           x="43.497967"
           y="31.248432">DIST</tspan><tspan
           sodipodi:role="line"
           style="stroke-width:0.264583"
           x="43.497967"
           y="35.217182"
           id="tspan23">MIX</tspan></text>
      <text
         xml:space="preserve"
         style="font-size:3.175px;fill:#ffffff;stroke-width:0.264583"
         x="54.571545"
         y="15.717611"
         id="text24"><tspan
           sodipodi:role="line"
           id="tspan24"
           style="stroke-width:0.264583"
           x="54.571545"
           y="15.717611">ENV</tspan></text>
      <text
         xml:space="preserve"
         style="font-size:3.175px;fill:#ffffff;stroke-width:0.264583"
         x="4.746582"
         y="33.698559"
         id="text25"><tspan
           sodipodi:role="line"
           id="tspan25"
           style="stroke-width:0.264583"
           x="4.746582"
           y="33.698559">IN GAIN</tspan></text>
      <text
         xml:space="preserve"
         style="font-size:3.175px;fill:#ffffff;stroke-width:0.264583"
         x="71.350174"
         y="34.668716"
         id="text26"><tspan
           sodipodi:role="line"
           id="tspan26"
           style="stroke-width:0.264583"
           x="71.350174"
           y="34.668716">OUT GAIN</tspan></text>
      <text
         xml:space="preserve"
         style="font-size:3.175px;fill:#ffffff;stroke-width:0.264583"
         x="22.471748"
         y="6.5822911"
         id="text27"><tspan
           sodipodi:role="line"
           id="tspan27"
           style="stroke-width:0.264583"
           x="22.471748"
           y="6.5822911">DISCOMFORT VCV EXPERIMENT</tspan></text>
      <text
         xml:space="preserve"
         style="font-size:3.175px;fill:#ffffff;stroke-width:0.264583"
         x="3.9785728"
         y="52.51371"
         id="text28"><tspan
           sodipodi:role="line"
           id="tspan28"
           style="stroke-width:0.264583"
           x="3.9785728"
           y="52.51371">FOLD ASYM</tspan></text>
      <text
         xml:space="preserve"
         style="font-size:3.175px;fill:#ffffff;stroke-width:0.264583"
         x="3.294014"
         y="68.212471"
         id="text29"><tspan
           sodipodi:role="line"
           id="tspan29"
           style="stroke-width:0.264583"
           x="3.294014"
           y="68.212471">FOLD OFFSET</tspan></text>
      <text
         xml:space="preserve"
         style="font-size:3.175px;fill:#ffffff;stroke-width:0.264583"
         x="3.922718"
         y="85.153625"
         id="text30"><tspan
           sodipodi:role="line"
           id="tspan30"
           style="stroke-width:0.264583"
           x="3.922718"
           y="85.153625">FOLD GAIN</tspan></text>
      <text
         xml:space="preserve"
         style="font-size:3.175px;fill:#ffffff;stroke-width:0.264583"
         x="2.8469048"
         y="103.18729"
         id="text31"><tspan
           sodipodi:role="line"
           id="tspan31"
           style="stroke-width:0.264583"
           x="2.8469048"
           y="103.18729">ENV CV</tspan></text>
      <text
         xml:space="preserve"
         style="font-size:3.175px;fill:#ffffff;stroke-width:0.264583"
         x="75.702736"
         y="102.84592"
         id="text32"><tspan
           sodipodi:role="line"
           id="tspan32"
           style="stroke-width:0.264583"
           x="75.702736"
           y="102.84592">ENV CV</tspan></text>
      <text
         xml:space="preserve"
         style="font-size:3.175px;fill:#ffffff;stroke-width:0.264583"
         x="70.998474"
         y="52.26223"
         id="text33"><tspan
           sodipodi:role="line"
           id="tspan33"
           style="stroke-width:0.264583"
           x="70.998474"
           y="52.26223">DIST A</tspan></text>
      <text
         xml:space="preserve"
         style="font-size:3.175px;fill:#ffffff;stroke-width:0.264583"
         x="71.249947"
         y="68.105583"
         id="text34"
         inkscape:label="text9"><tspan
           sodipodi:role="line"
           id="tspan34"
           style="stroke-width:0.264583"
           x="71.249947"
           y="68.105583">DIST B</tspan></text>
      <text
         xml:space="preserve"
         style="font-size:3.175px;fill:#ffffff;stroke-width:0.264583"
         x="68.73513"
         y="85.080605"
         id="text35"><tspan
           sodipodi:role="line"
           id="tspan35"
           style="stroke-width:0.264583"
           x="68.73513"
           y="85.080605">DIST GAIN</tspan></text>
      <text
         xml:space="preserve"
         style="font-size:3.175px;fill:#ffffff;stroke-width:0.264583"
         x="37.425648"
         y="101.42693"
         id="text36"><tspan
           sodipodi:role="line"
           id="tspan36"
           style="stroke-width:0.264583"
           x="37.425648"
           y="101.42693">ATTACK</tspan></text>
      <text
         xml:space="preserve"
         style="font-size:3.175px;fill:#ffffff;stroke-width:0.264583"
         x="38.557316"
         y="83.697456"
         id="text38"><tspan
           sodipodi:role="line"
           id="tspan37"
           style="stroke-width:0.264583"
           x="38.557316"
           y="83.697456">DECAY</tspan><tspan
           sodipodi:role="line"
           style="stroke-width:0.264583"
           x="38.557316"
           y="87.666206"
           id="tspan38" /></text>
      <text
         xml:space="preserve"
         style="font-size:3.175px;fill:#ffffff;stroke-width:0.264583"
         x="39.940464"
         y="67.351135"
         id="text39"><tspan
           sodipodi:role="line"
           id="tspan39"
           style="stroke-width:0.264583"
           x="39.940464"
           y="67.351135">GAIN</tspan></text>
      <text
         xml:space="preserve"
         style="font-size:3.175px;fill:#ffffff;stroke-width:0.264583"
         x="32.647491"
         y="60.435387"
         id="text40"><tspan
           sodipodi:role="line"
           id="tspan40"
           style="stroke-width:0.264583"
           x="32.647491"
           y="60.435387">ENV FOLLOWER</tspan></text>
    </g>
  </g>
  <g
     inkscape:groupmode="layer"
     id="layer2"
     inkscape:label="components">
    <ellipse
       style="fill:#ff0000;fill-opacity:1;stroke-width:0.0787432"
       id="path2"
       cx="6.8278718"
       cy="59.304321"
       rx="3.7594404"
       ry="3.8367996"
       inkscape:label="fold_a_knob" />
    <ellipse
       style="fill:#ff0000;fill-opacity:1;stroke-width:0.0787432"
       id="path2-634"
       cx="10.459569"
       cy="43.078484"
       rx="3.7594404"
       ry="3.8367996"
       inkscape:label="in_gain" />
    <ellipse
       style="fill:#ff0000;fill-opacity:1;stroke-width:0.0787432"
       id="path2-634-4-8"
       cx="33.056362"
       cy="43.078484"
       rx="3.7594404"
       ry="3.8367996"
       inkscape:label="fold_mix_knob" />
    <ellipse
       style="fill:#ff0000;fill-opacity:1;stroke-width:0.0787432"
       id="path2-634-4-8-6"
       cx="47.760891"
       cy="43.078484"
       rx="3.7594404"
       ry="3.8367996"
       inkscape:label="dist_mix_knob" />
    <ellipse
       style="fill:#ff0000;fill-opacity:1;stroke-width:0.0787432"
       id="path2-634-4-8-6-4"
       cx="81.218643"
       cy="43.078484"
       rx="3.7594404"
       ry="3.8367996"
       inkscape:label="out_gain" />
    <ellipse
       style="fill:#00ff00;fill-opacity:1;stroke-width:0.0787432"
       id="path2-09"
       cx="19.196943"
       cy="59.022758"
       rx="3.7594404"
       ry="3.8367996"
       inkscape:label="fold_a_cv" />
    <ellipse
       style="fill:#00ff00;fill-opacity:1;stroke-width:0.0787432"
       id="path2-09-5"
       cx="69.832855"
       cy="22.415304"
       rx="3.7594404"
       ry="3.8367996"
       inkscape:label="OUT_L" />
    <ellipse
       style="fill:#00ff00;fill-opacity:1;stroke-width:0.0787432"
       id="path2-09-5-7"
       cx="81.707512"
       cy="22.415304"
       rx="3.7594404"
       ry="3.8367996"
       inkscape:label="OUT_R" />
    <ellipse
       style="fill:#00ff00;fill-opacity:1;stroke-width:0.0787432"
       id="path2-09-5-3"
       cx="10.459569"
       cy="22.415304"
       rx="3.7594404"
       ry="3.8367996"
       inkscape:label="IN_L" />
    <ellipse
       style="fill:#00ff00;fill-opacity:1;stroke-width:0.0787432"
       id="path2-09-5-7-5"
       cx="22.334227"
       cy="22.415304"
       rx="3.7594404"
       ry="3.8367996"
       inkscape:label="IN_R" />
    <ellipse
       style="fill:#00ff00;fill-opacity:1;stroke-width:0.0787432"
       id="path2-09-5-3-1"
       cx="34.208885"
       cy="22.415304"
       rx="3.7594404"
       ry="3.8367996"
       inkscape:label="fold_mix_cv" />
    <ellipse
       style="fill:#00ff00;fill-opacity:1;stroke-width:0.0787432"
       id="path2-09-5-7-5-3"
       cx="46.083542"
       cy="22.415304"
       rx="3.7594404"
       ry="3.8367996"
       inkscape:label="dist_mix_cv" />
    <ellipse
       style="fill:#ff0000;fill-opacity:1;stroke-width:0.0787432"
       id="path2-8"
       cx="82.71386"
       cy="74.51339"
       rx="3.7594404"
       ry="3.8367996"
       inkscape:label="dist_b_knob" />
    <ellipse
       style="fill:#ff0000;fill-opacity:1;stroke-width:0.0787432"
       id="path2-5"
       cx="82.774376"
       cy="92.129913"
       rx="3.7594404"
       ry="3.8367996"
       inkscape:label="dist_c_knob" />
    <ellipse
       style="fill:#ff0000;fill-opacity:1;stroke-width:0.0787432"
       id="path2-41"
       cx="81.876419"
       cy="109.77552"
       rx="3.7594404"
       ry="3.8367996"
       inkscape:label="dist_env_cv" />
    <ellipse
       style="fill:#00ff00;fill-opacity:1;stroke-width:0.0787432"
       id="path2-63"
       cx="70.81546"
       cy="58.563168"
       rx="3.7594404"
       ry="3.8367996"
       inkscape:label="dist_a_cv" />
    <ellipse
       style="fill:#00ff00;fill-opacity:1;stroke-width:0.0787432"
       id="path2-48"
       cx="70.809319"
       cy="74.588783"
       rx="3.7594404"
       ry="3.8367996"
       inkscape:label="dist_b_cv" />
    <ellipse
       style="fill:#00ff00;fill-opacity:1;stroke-width:0.0787432"
       id="path2-92"
       cx="70.741371"
       cy="92.077568"
       rx="3.7594404"
       ry="3.8367996"
       inkscape:label="dist_c_cv" />
    <ellipse
       style="fill:#00ff00;fill-opacity:1;stroke-width:0.0787432"
       id="path2-4"
       cx="19.078306"
       cy="74.965294"
       rx="3.7594404"
       ry="3.8367996"
       inkscape:label="fold_b_cv" />
    <ellipse
       style="fill:#00ff00;fill-opacity:1;stroke-width:0.0787432"
       id="path2-3"
       cx="18.813437"
       cy="92.589905"
       rx="3.7594404"
       ry="3.8367996"
       inkscape:label="fold_c_cv" />
    <ellipse
       style="fill:#ff0000;fill-opacity:1;stroke-width:0.0787432"
       id="path2-9"
       cx="6.797545"
       cy="75.246948"
       rx="3.7594404"
       ry="3.8367996"
       inkscape:label="fold_b_knob" />
    <ellipse
       style="fill:#ff0000;fill-opacity:1;stroke-width:0.0787432"
       id="path2-96"
       cx="9.0350018"
       cy="110.01368"
       rx="3.7594404"
       ry="3.8367996"
       inkscape:label="fold_env_cv" />
    <ellipse
       style="fill:#ff0000;fill-opacity:1;stroke-width:0.0787432"
       id="path2-0"
       cx="6.7638144"
       cy="92.804596"
       rx="3.7594404"
       ry="3.8367996"
       inkscape:label="fold_c_knob" />
    <ellipse
       style="fill:#ff0000;fill-opacity:1;stroke-width:0.0787432"
       id="path2-6"
       cx="82.403397"
       cy="58.66581"
       rx="3.7594404"
       ry="3.8367996"
       inkscape:label="dist_a_knob" />
    <ellipse
       style="fill:#ff0000;fill-opacity:1;stroke-width:0.0787432"
       id="path2-8-2"
       cx="43.875828"
       cy="89.785866"
       rx="3.7594404"
       ry="3.8367996"
       inkscape:label="env_attack" />
    <ellipse
       style="fill:#ff0000;fill-opacity:1;stroke-width:0.0787432"
       id="path2-5-2"
       cx="43.936344"
       cy="107.40239"
       rx="3.7594404"
       ry="3.8367996"
       inkscape:label="env_decay" />
    <ellipse
       style="fill:#ff0000;fill-opacity:1;stroke-width:0.0787432"
       id="path2-6-6"
       cx="43.565365"
       cy="73.938278"
       rx="3.7594404"
       ry="3.8367996"
       inkscape:label="env_gain" />
    <ellipse
       style="fill:#0000ff;fill-opacity:1;stroke-width:0.0787432"
       id="path2-18-6"
       cx="57.958199"
       cy="22.415304"
       rx="3.7594404"
       ry="3.8367996"
       inkscape:label="env_out" />
  </g>
</svg>
