<?xml version="1.0" encoding="UTF-8" standalone="no"?>
<!-- Created with Inkscape (http://www.inkscape.org/) -->

<svg
   width="50.799999mm"
   height="128.5mm"
   viewBox="0 0 50.799999 128.5"
   version="1.1"
   id="svg1"
   inkscape:version="1.3 (0e150ed6c4, 2023-07-21)"
   sodipodi:docname="DebugLowstepperV7.svg"
   xmlns:inkscape="http://www.inkscape.org/namespaces/inkscape"
   xmlns:sodipodi="http://sodipodi.sourceforge.net/DTD/sodipodi-0.dtd"
   xmlns="http://www.w3.org/2000/svg"
   xmlns:svg="http://www.w3.org/2000/svg">
  <sodipodi:namedview
     id="namedview1"
     pagecolor="#505050"
     bordercolor="#ffffff"
     borderopacity="1"
     inkscape:showpageshadow="0"
     inkscape:pageopacity="0"
     inkscape:pagecheckerboard="1"
     inkscape:deskcolor="#505050"
     inkscape:document-units="mm"
     inkscape:zoom="1.4878904"
     inkscape:cx="306.47418"
     inkscape:cy="342.43113"
     inkscape:window-width="2560"
     inkscape:window-height="1377"
     inkscape:window-x="1912"
     inkscape:window-y="-8"
     inkscape:window-maximized="1"
     inkscape:current-layer="layer2" />
  <defs
     id="defs1" />
  <g
     inkscape:label="Layer 1"
     inkscape:groupmode="layer"
     id="layer1">
    <rect
       style="fill:#000000;stroke-width:0.238166"
       id="rect1"
       width="50.799999"
       height="128.5"
       x="0"
       y="-2.7755576e-17"
       inkscape:label="Bounding Box" />
    <path
       style="font-size:4.1213px;fill:#ffffff;stroke-width:0.343441"
       d="M 14.720616,8.4222307 H 14.342294 V 5.2910085 h 0.378322 z m 2.664356,-1.1228933 q 0,0.5493725 -0.281729,0.8673244 -0.28173,0.3179519 -0.754633,0.3179519 -0.476928,0 -0.758657,-0.3179519 -0.279717,-0.3179519 -0.279717,-0.8673244 0,-0.5493725 0.279717,-0.8673244 0.281729,-0.3199642 0.758657,-0.3199642 0.472903,0 0.754633,0.3199642 0.281729,0.3179519 0.281729,0.8673244 z m -0.390396,0 q 0,-0.4366807 -0.17105,-0.6479779 Q 16.652475,6.43805 16.34861,6.43805 q -0.30789,0 -0.47894,0.2133095 -0.169038,0.2112972 -0.169038,0.6479779 0,0.4225943 0.17105,0.6419408 0.17105,0.2173342 0.476928,0.2173342 0.301853,0 0.472903,-0.2153218 0.173063,-0.2173342 0.173063,-0.6439532 z m 3.803348,-1.1249057 -0.585595,2.247799 H 19.86218 L 19.284634,6.6895943 18.711113,8.4222307 h -0.348137 l -0.591632,-2.247799 h 0.394422 l 0.412532,1.7406859 0.561447,-1.7406859 h 0.311915 l 0.575533,1.7406859 0.390396,-1.7406859 z m 2.151206,1.5998212 q 0,0.3078901 -0.255569,0.5051007 -0.253556,0.1972107 -0.694262,0.1972107 -0.249532,0 -0.458817,-0.058358 Q 21.33321,8.3578354 21.192345,8.287403 V 7.8627964 h 0.02012 q 0.179099,0.1348277 0.398446,0.2153219 0.219346,0.078482 0.420582,0.078482 0.249532,0 0.390396,-0.080494 0.140865,-0.080494 0.140865,-0.2535566 0,-0.1328153 -0.07647,-0.2012353 -0.07647,-0.06842 -0.293804,-0.1167165 -0.08049,-0.018111 -0.211297,-0.04226 -0.128791,-0.024148 -0.235445,-0.052321 -0.295816,-0.078482 -0.420582,-0.2294083 -0.122754,-0.1529388 -0.122754,-0.3742977 0,-0.1388524 0.05635,-0.261606 0.05836,-0.1227536 0.175075,-0.2193466 0.112692,-0.094581 0.285754,-0.1489141 0.175075,-0.056346 0.390397,-0.056346 0.201235,0 0.406495,0.050309 0.207272,0.048297 0.344112,0.1187289 V 6.693619 h -0.02012 q -0.14489,-0.1066548 -0.352162,-0.1790995 -0.207272,-0.074457 -0.406495,-0.074457 -0.207273,0 -0.35015,0.080494 -0.142877,0.078482 -0.142877,0.2354454 0,0.1388524 0.08653,0.2092848 0.08452,0.070432 0.27368,0.1147042 0.104643,0.024148 0.233433,0.048296 0.130803,0.024148 0.217334,0.044272 0.263619,0.060371 0.406496,0.2072724 0.142877,0.1489142 0.142877,0.3944214 z m 1.708488,0.6278543 q -0.106654,0.028173 -0.233433,0.046284 -0.124766,0.018111 -0.223371,0.018111 -0.344112,0 -0.523212,-0.1851365 Q 23.498503,8.0962294 23.498503,7.6877216 V 6.4923836 H 23.242934 V 6.1744317 h 0.255569 V 5.5284662 h 0.378322 v 0.6459655 h 0.780793 v 0.3179519 h -0.780793 v 1.024288 q 0,0.1770871 0.0081,0.2777048 0.008,0.098605 0.05635,0.1851365 0.04427,0.080494 0.120741,0.1187289 0.07848,0.036222 0.237457,0.036222 0.09257,0 0.193186,-0.026161 0.100618,-0.028173 0.14489,-0.046284 h 0.02012 z m 2.338355,-1.0645351 h -1.656167 q 0,0.2072724 0.06238,0.3622237 0.06238,0.1529388 0.17105,0.2515442 0.104642,0.096593 0.247519,0.1448894 0.14489,0.048296 0.317952,0.048296 0.229409,0 0.460829,-0.090556 0.233433,-0.092568 0.332039,-0.1811118 h 0.02012 v 0.4125325 q -0.191173,0.080494 -0.390396,0.1348277 -0.199223,0.054334 -0.41857,0.054334 -0.559434,0 -0.873361,-0.301853 -0.313928,-0.3038654 -0.313928,-0.8612874 0,-0.5513849 0.299841,-0.8753738 0.301853,-0.3239889 0.792867,-0.3239889 0.454792,0 0.7003,0.2656306 0.247519,0.2656307 0.247519,0.7546326 z M 26.627712,7.0477932 q -0.002,-0.2978283 -0.150926,-0.460829 -0.146902,-0.1630006 -0.448755,-0.1630006 -0.303865,0 -0.484977,0.1790994 -0.1791,0.1790995 -0.203248,0.4447302 z m 2.919925,0.2233712 q 0,0.2736801 -0.07848,0.5010761 -0.07848,0.2253836 -0.221359,0.3823472 -0.132816,0.1489142 -0.313927,0.2314207 -0.1791,0.080494 -0.380335,0.080494 -0.175075,0 -0.317952,-0.038235 -0.140865,-0.038235 -0.287767,-0.1187289 V 9.2513204 H 27.569494 V 6.1744317 h 0.378322 v 0.2354454 q 0.150927,-0.1267783 0.338076,-0.2112971 0.189161,-0.086531 0.40247,-0.086531 0.406496,0 0.631879,0.3078901 0.227396,0.3058777 0.227396,0.8512255 z m -0.390396,0.010062 q 0,-0.4064954 -0.138853,-0.6077308 -0.138852,-0.2012353 -0.426619,-0.2012353 -0.163,0 -0.328013,0.070432 -0.165013,0.070432 -0.31594,0.1851366 v 1.2738198 q 0.160989,0.072445 0.275693,0.098605 0.116716,0.026161 0.263618,0.026161 0.31594,0 0.493027,-0.2133094 0.177087,-0.2133095 0.177087,-0.6318791 z m 2.95816,-0.010062 q 0,0.2736801 -0.07848,0.5010761 -0.07848,0.2253836 -0.221359,0.3823472 -0.132815,0.1489142 -0.313927,0.2314207 -0.1791,0.080494 -0.380335,0.080494 -0.175075,0 -0.317952,-0.038235 Q 30.662481,8.3900331 30.51558,8.3095389 V 9.2513204 H 30.137257 V 6.1744317 h 0.378323 v 0.2354454 q 0.150926,-0.1267783 0.338075,-0.2112971 0.189161,-0.086531 0.402471,-0.086531 0.406495,0 0.631879,0.3078901 0.227396,0.3058777 0.227396,0.8512255 z m -0.390397,0.010062 q 0,-0.4064954 -0.138852,-0.6077308 -0.138853,-0.2012353 -0.426619,-0.2012353 -0.163001,0 -0.328014,0.070432 -0.165013,0.070432 -0.315939,0.1851366 v 1.2738198 q 0.160988,0.072445 0.275692,0.098605 0.116717,0.026161 0.263618,0.026161 0.31594,0 0.493027,-0.2133094 0.177087,-0.2133095 0.177087,-0.6318791 z m 2.861568,0.056346 h -1.656167 q 0,0.2072724 0.06238,0.3622237 0.06238,0.1529388 0.17105,0.2515442 0.104642,0.096593 0.24752,0.1448894 0.144889,0.048296 0.317951,0.048296 0.229409,0 0.460829,-0.090556 0.233433,-0.092568 0.332039,-0.1811118 h 0.02012 v 0.4125325 q -0.191173,0.080494 -0.390396,0.1348277 -0.199223,0.054334 -0.41857,0.054334 -0.559434,0 -0.873361,-0.301853 -0.313928,-0.3038654 -0.313928,-0.8612874 0,-0.5513849 0.299841,-0.8753738 0.301853,-0.3239889 0.792868,-0.3239889 0.454791,0 0.700299,0.2656306 0.247519,0.2656307 0.247519,0.7546326 z M 34.218311,7.0477932 q -0.002,-0.2978283 -0.150926,-0.460829 -0.146902,-0.1630006 -0.448755,-0.1630006 -0.303865,0 -0.484977,0.1790994 -0.1791,0.1790995 -0.203248,0.4447302 z m 2.344391,-0.460829 h -0.02012 q -0.08452,-0.020123 -0.165013,-0.028173 -0.07848,-0.010062 -0.187149,-0.010062 -0.175075,0 -0.338075,0.078482 -0.163001,0.076469 -0.313928,0.199223 v 1.5957964 h -0.378322 v -2.247799 h 0.378322 v 0.3320384 q 0.225384,-0.1811119 0.396434,-0.2555689 0.173062,-0.076469 0.352162,-0.076469 0.0986,0 0.142877,0.00604 0.04427,0.00402 0.132815,0.018111 z"
       id="text1"
       inkscape:label="Title"
       transform="scale(0.99007872,1.0100207)"
       aria-label="lowstepper" />
  </g>
  <g
     inkscape:groupmode="layer"
     id="layer2"
     inkscape:label="components">
    <ellipse
       style="fill:#ff0000;fill-opacity:1;stroke-width:0.0787432"
       id="path2"
       cx="4.5161533"
       cy="20.894234"
       rx="3.7594404"
       ry="3.8367996"
       inkscape:label="rate_knob_a" />
    <ellipse
       style="fill:#ff00ff;fill-opacity:1;stroke-width:0.0118793"
       id="path2-62"
       cx="4.3458042"
       cy="88.900826"
       rx="0.58724934"
       ry="0.55901957"
       inkscape:label="led_a" />
    <circle
       style="fill:#ff0000;fill-opacity:1;stroke-width:0.0414665"
       id="path2-91"
       cx="15.594"
       cy="88.942001"
       inkscape:label="speed_toggle_a"
       r="2" />
    <ellipse
       style="fill:#ff00ff;fill-opacity:1;stroke-width:0.0111782"
       id="path2-029"
       cx="46.251297"
       cy="89.07972"
       rx="0.54127568"
       ry="0.53702098"
       inkscape:label="led_b" />
    <circle
       style="fill:#ff0000;fill-opacity:1;stroke-width:0.0414665"
       id="path2-04"
       cx="33.995998"
       cy="88.942001"
       inkscape:label="speed_toggle_b"
       r="2" />
    <ellipse
       style="fill:#00ff00;fill-opacity:1;stroke-width:0.0787432"
       id="path2-09"
       cx="15.818277"
       cy="20.790497"
       rx="3.7594404"
       ry="3.8367996"
       inkscape:label="rate_cv_a" />
    <ellipse
       style="fill:#ff0000;fill-opacity:1;stroke-width:0.0787432"
       id="path2-8"
       cx="45.015076"
       cy="32.058022"
       rx="3.7594404"
       ry="3.8367996"
       inkscape:label="morph_knob_b" />
    <ellipse
       style="fill:#ff0000;fill-opacity:1;stroke-width:0.0787432"
       id="path2-5"
       cx="45.201332"
       cy="43.513245"
       rx="3.7594404"
       ry="3.8367996"
       inkscape:label="start_knob_b" />
    <ellipse
       style="fill:#ff0000;fill-opacity:1;stroke-width:0.0787432"
       id="path2-41"
       cx="45.309303"
       cy="55.374763"
       rx="3.7594404"
       ry="3.8367996"
       inkscape:label="end_knob_b" />
    <ellipse
       style="fill:#00ff00;fill-opacity:1;stroke-width:0.0787432"
       id="path2-63"
       cx="34.005798"
       cy="20.686554"
       rx="3.7594404"
       ry="3.8367996"
       inkscape:label="rate_cv_b" />
    <ellipse
       style="fill:#00ff00;fill-opacity:1;stroke-width:0.0787432"
       id="path2-48"
       cx="33.999657"
       cy="32.311234"
       rx="3.7594404"
       ry="3.8367996"
       inkscape:label="morph_cv_b" />
    <ellipse
       style="fill:#00ff00;fill-opacity:1;stroke-width:0.0787432"
       id="path2-92"
       cx="34.057449"
       cy="43.638725"
       rx="3.7594404"
       ry="3.8367996"
       inkscape:label="start_cv_b" />
    <ellipse
       style="fill:#00ff00;fill-opacity:1;stroke-width:0.0787432"
       id="path2-56"
       cx="33.884094"
       cy="55.155663"
       rx="3.7594404"
       ry="3.8367996"
       inkscape:label="end_cv_b" />
    <ellipse
       style="fill:#00ff00;fill-opacity:1;stroke-width:0.0787432"
       id="path2-4"
       cx="15.69964"
       cy="32.3321"
       rx="3.7594404"
       ry="3.8367996"
       inkscape:label="morph_cv_a" />
    <ellipse
       style="fill:#00ff00;fill-opacity:1;stroke-width:0.0787432"
       id="path2-3"
       cx="15.560511"
       cy="43.79541"
       rx="3.7594404"
       ry="3.8367996"
       inkscape:label="start_cv_a" />
    <ellipse
       style="fill:#00ff00;fill-opacity:1;stroke-width:0.0787432"
       id="path2-02"
       cx="15.911036"
       cy="55.391533"
       rx="3.7594404"
       ry="3.8367996"
       inkscape:label="end_cv_a" />
    <ellipse
       style="fill:#ff0000;fill-opacity:1;stroke-width:0.0787432"
       id="path2-9"
       cx="4.4858265"
       cy="32.435928"
       rx="3.7594404"
       ry="3.8367996"
       inkscape:label="morph_knob_a" />
    <ellipse
       style="fill:#ff0000;fill-opacity:1;stroke-width:0.0787432"
       id="path2-96"
       cx="4.4599476"
       cy="55.257271"
       rx="3.7594404"
       ry="3.8367996"
       inkscape:label="end_knob_a" />
    <ellipse
       style="fill:#ff0000;fill-opacity:1;stroke-width:0.0787432"
       id="path2-0"
       cx="4.577837"
       cy="43.832275"
       rx="3.7594404"
       ry="3.8367996"
       inkscape:label="start_knob_a" />
    <ellipse
       style="fill:#ff0000;fill-opacity:1;stroke-width:0.0787432"
       id="path2-6"
       cx="44.704613"
       cy="20.611374"
       rx="3.7594404"
       ry="3.8367996"
       inkscape:label="rate_knob_b" />
    <ellipse
       style="fill:#00ff00;fill-opacity:1;stroke-width:0.0787432"
       id="path2-1"
       cx="4.6120319"
       cy="107.02118"
       rx="3.7594404"
       ry="3.8367996"
       inkscape:label="sync_in_a" />
    <ellipse
       style="fill:#00ff00;fill-opacity:1;stroke-width:0.0787432"
       id="path2-483"
       cx="18.159494"
       cy="107.11314"
       rx="3.7594404"
       ry="3.8367996"
       inkscape:label="reset_in_a" />
    <ellipse
       style="fill:#00ff00;fill-opacity:1;stroke-width:0.0787432"
       id="path2-32"
       cx="32.200409"
       cy="107.07961"
       rx="3.7594404"
       ry="3.8367996"
       inkscape:label="sync_in_b" />
    <ellipse
       style="fill:#0000ff;fill-opacity:1;stroke-width:0.0787432"
       id="path2-040"
       cx="4.5440464"
       cy="117.66623"
       rx="3.7594404"
       ry="3.8367996"
       inkscape:label="cv_out_a" />
    <ellipse
       style="fill:#0000ff;fill-opacity:1;stroke-width:0.0787432"
       id="path2-82"
       cx="18.305117"
       cy="117.85332"
       rx="3.7594404"
       ry="3.8367996"
       inkscape:label="eoc_out_a" />
    <ellipse
       style="fill:#0000ff;fill-opacity:1;stroke-width:0.0787432"
       id="path2-912"
       cx="32.357742"
       cy="118.00679"
       rx="3.7594404"
       ry="3.8367996"
       inkscape:label="cv_out_b" />
    <ellipse
       style="fill:#0000ff;fill-opacity:1;stroke-width:0.0787432"
       id="path2-18"
       cx="46.211662"
       cy="117.95406"
       rx="3.7594404"
       ry="3.8367996"
       inkscape:label="eoc_out_b" />
    <ellipse
       style="display:inline;fill:#00ff00;fill-opacity:1;stroke-width:0.0787432"
       id="path2-2"
       cx="45.943596"
       cy="106.87014"
       rx="3.7594404"
       ry="3.8367996"
       inkscape:label="reset_in_b" />
  </g>
</svg>
